<?xml version="1.0" standalone="no"?>
<!DOCTYPE svg PUBLIC "-//W3C//DTD SVG 20010904//EN"
 "http://www.w3.org/TR/2001/REC-SVG-20010904/DTD/svg10.dtd">
<svg version="1.0" xmlns="http://www.w3.org/2000/svg"
 width="2000.000000pt" height="500.000000pt" viewBox="0 0 2000.000000 500.000000"
 preserveAspectRatio="xMidYMid meet">
<metadata>
Created by potrace 1.15, written by Peter Selinger 2001-2017
</metadata>
<g transform="translate(0.000000,500.000000) scale(0.100000,-0.100000)"
fill="#000000" stroke="none">
<path d="M57 4983 l-57 -15 0 -388 1 -388 94 -12 c52 -6 114 -14 137 -16 24
-3 84 -11 133 -19 140 -21 133 -23 198 54 31 38 57 75 57 82 0 7 3 10 6 7 3
-4 21 11 41 33 l35 39 -173 282 c-95 156 -174 285 -176 288 -2 2 -9 -2 -14
-10 -8 -11 -9 -9 -4 8 4 14 0 32 -9 47 -16 24 -21 25 -114 24 -53 -1 -123 -8
-155 -16z m233 -163 c-6 -11 -13 -20 -16 -20 -2 0 0 9 6 20 6 11 13 20 16 20
2 0 0 -9 -6 -20z"/>
<path d="M439 4873 c250 -409 288 -468 297 -466 5 1 12 19 15 40 4 24 7 29 8
14 l1 -25 30 29 c17 16 30 34 30 40 0 6 -14 33 -32 61 -18 27 -39 61 -48 75
-8 14 -62 101 -120 193 l-105 166 -77 0 -77 0 78 -127z"/>
<path d="M562 4978 c31 -47 173 -270 183 -286 6 -9 30 -49 56 -89 l45 -73 147
171 c80 95 144 176 140 182 -3 6 -2 7 4 4 9 -5 103 93 103 107 0 3 -156 6
-346 6 l-346 0 14 -22z m185 -160 c-3 -7 -5 -2 -5 12 0 14 2 19 5 13 2 -7 2
-19 0 -25z m0 -60 c-3 -7 -5 -2 -5 12 0 14 2 19 5 13 2 -7 2 -19 0 -25z"/>
<path d="M1138 4827 c-80 -95 -176 -206 -211 -248 l-65 -75 39 -63 40 -62 18
23 c73 93 212 292 230 326 12 23 25 42 30 42 9 0 171 214 171 225 0 3 -24 5
-52 5 l-53 -1 -147 -172z"/>
<path d="M1412 4948 c-21 -29 -69 -95 -106 -146 -39 -52 -66 -99 -62 -107 3
-8 0 -12 -8 -9 -11 4 -172 -206 -230 -301 -10 -16 -22 -31 -27 -33 -14 -5 6
-43 91 -178 45 -71 83 -130 85 -132 5 -6 449 -61 457 -56 5 3 2 17 -6 30 -20
30 -21 44 -1 18 14 -19 14 -19 15 1 0 11 13 151 29 310 l30 290 -17 180 -17
180 -97 3 -97 3 -39 -53z m116 -783 c-3 -3 -9 2 -12 12 -6 14 -5 15 5 6 7 -7
10 -15 7 -18z"/>
<path d="M1677 4948 c16 -158 18 -161 29 -50 9 102 9 102 -13 102 -21 0 -22
-3 -16 -52z"/>
<path d="M1751 4903 c-28 -246 -36 -353 -29 -418 4 -38 17 -171 29 -295 12
-124 23 -226 24 -228 4 -4 197 -33 200 -30 2 2 -29 243 -68 536 l-71 532 -37
0 -37 0 -11 -97z"/>
<path d="M1884 4963 c4 -21 29 -209 57 -418 27 -209 57 -432 65 -495 8 -63 18
-118 22 -121 4 -4 81 -16 172 -28 91 -12 230 -30 310 -41 80 -11 152 -20 162
-20 13 0 148 141 320 336 18 21 18 22 -68 113 -48 50 -164 156 -258 234 -94
78 -262 217 -373 309 l-202 168 -107 0 -106 0 6 -37z"/>
<path d="M2146 4992 c5 -5 77 -64 159 -132 83 -68 191 -158 240 -199 l90 -74
-55 59 c-31 32 -106 111 -167 174 -61 63 -123 130 -138 148 -24 29 -32 32 -83
32 -31 0 -52 -4 -46 -8z"/>
<path d="M2331 4973 c13 -15 74 -79 135 -143 61 -63 194 -202 295 -308 101
-106 208 -213 237 -237 l54 -44 56 61 c31 33 60 66 65 74 5 9 -66 117 -209
319 l-217 305 -220 0 -220 0 24 -27z"/>
<path d="M2790 4995 c0 -6 386 -553 405 -573 16 -18 301 299 297 331 -2 12
-12 73 -24 135 l-20 112 -329 0 c-181 0 -329 -2 -329 -5z"/>
<path d="M3485 4957 c16 -105 23 -115 24 -34 1 64 -2 77 -15 77 -12 0 -14 -8
-9 -43z"/>
<path d="M3550 4958 c0 -65 12 -148 20 -143 4 3 45 45 90 95 l82 90 -96 0 -96
0 0 -42z"/>
<path d="M3670 4878 l-112 -123 7 -135 c6 -128 28 -278 96 -645 16 -88 29
-163 29 -166 0 -4 14 -9 30 -13 17 -3 42 -17 57 -32 l26 -26 321 121 c177 66
604 228 949 359 l628 237 3 61 4 60 -370 212 -370 212 -594 0 -593 0 -111
-122z"/>
<path d="M5395 4806 c333 -190 340 -194 360 -177 11 10 35 26 54 36 31 15 33
20 28 53 -3 21 -11 92 -18 160 l-13 122 -375 0 -376 0 340 -194z"/>
<path d="M5853 4953 c4 -27 12 -98 18 -159 l12 -112 38 -6 c43 -7 102 -53 125
-97 18 -36 18 -122 0 -157 -30 -57 -103 -102 -168 -102 -41 0 -115 36 -135 66
-8 13 -21 24 -28 24 -7 0 -156 -54 -331 -121 -176 -66 -407 -154 -514 -195
-1157 -438 -1052 -396 -1064 -432 -6 -18 -28 -49 -48 -70 -20 -20 -60 -61 -89
-91 -57 -59 4 89 -734 -1774 l-138 -349 24 -22 c40 -38 903 -820 920 -833 12
-10 25 -7 64 12 130 66 265 -14 265 -156 0 -65 -23 -107 -79 -146 -22 -16 -40
-31 -41 -34 0 -4 15 -49 34 -100 l34 -94 5783 -3 5784 -2 153 57 c126 48 152
61 152 78 1 30 23 64 54 85 16 10 38 35 50 57 12 21 38 49 58 62 25 16 42 38
54 70 9 25 91 233 181 461 91 228 193 487 228 575 35 88 138 349 230 580 92
231 177 448 190 482 l23 61 -411 374 c-226 205 -436 396 -467 424 -30 28 -74
68 -97 88 l-42 38 -27 -21 c-82 -64 -213 -42 -273 45 -29 42 -39 125 -22 177
11 33 62 87 105 112 15 9 11 27 -48 195 -35 102 -123 356 -196 565 -72 209
-136 392 -142 408 l-10 27 -4741 0 -4740 0 6 -47z m4293 -554 c3 -6 0 -17 -7
-25 -18 -17 -44 -2 -36 20 7 18 33 21 43 5z m-556 -149 c0 -13 -7 -20 -20 -20
-13 0 -20 7 -20 20 0 13 7 20 20 20 13 0 20 -7 20 -20z m528 -12 c15 -15 16
-55 1 -64 -6 -4 -9 -21 -5 -43 12 -80 11 -86 -4 -86 -12 0 -15 13 -15 58 0 52
-3 60 -26 74 -24 15 -29 14 -80 -9 -65 -30 -129 -83 -128 -107 1 -25 98 -104
118 -95 44 20 87 16 119 -11 27 -23 32 -34 32 -71 0 -35 -6 -51 -26 -71 -24
-24 -25 -27 -14 -75 9 -37 18 -52 37 -59 20 -7 24 -15 21 -41 -3 -31 -5 -33
-43 -34 -50 -1 -123 -38 -135 -68 -5 -13 -13 -25 -18 -27 -13 -5 -52 -189 -40
-189 18 0 133 103 138 124 7 26 48 34 56 12 8 -20 -15 -49 -33 -42 -16 6 -155
-103 -147 -116 3 -4 55 -8 116 -8 86 0 115 4 128 15 21 19 50 9 50 -16 0 -25
-27 -36 -51 -21 -11 7 -62 12 -127 12 -96 0 -111 -2 -127 -20 -23 -25 -41 -25
-62 0 -15 17 -30 20 -98 20 -69 0 -82 -3 -93 -20 -28 -45 -97 -7 -72 40 6 11
19 20 29 20 14 0 25 22 51 96 29 85 31 97 18 111 -14 13 -30 8 -154 -49 -123
-56 -139 -66 -139 -88 0 -28 54 -70 91 -70 17 0 24 -6 24 -20 0 -31 -26 -24
-88 24 -32 24 -66 45 -77 48 -13 2 -20 12 -21 28 0 14 -6 49 -13 79 -8 31 -11
75 -8 104 4 31 2 56 -5 64 -15 19 6 63 30 63 10 0 29 11 42 25 14 14 42 37 65
51 54 35 76 66 84 122 5 38 10 47 26 47 28 0 32 -40 6 -55 -23 -12 -28 -49 -9
-68 8 -8 46 -12 105 -12 76 0 93 3 93 15 0 8 -17 48 -37 89 -25 50 -43 76 -56
78 -54 8 -44 76 9 70 55 -6 149 -1 152 8 2 6 12 10 23 10 10 0 42 18 71 40 29
22 74 48 101 58 26 9 47 21 47 27 0 16 22 35 40 35 9 0 21 -5 28 -12z m-240
-26 c2 -7 -3 -12 -12 -12 -9 0 -16 7 -16 16 0 17 22 14 28 -4z m476 -44 c73
-37 158 -116 194 -180 20 -35 34 -49 57 -54 92 -20 182 -94 223 -182 22 -49
24 -64 20 -141 -9 -145 -77 -253 -198 -310 -50 -24 -68 -26 -205 -29 l-150 -3
-22 40 c-82 146 -122 378 -103 605 9 103 32 252 45 293 5 16 62 0 139 -39z
m-884 -63 c7 -9 10 -18 7 -22 -10 -10 12 -43 29 -43 27 0 9 -24 -24 -31 -17
-3 -47 -16 -67 -28 -43 -25 -55 -26 -55 -6 0 8 9 15 19 15 11 0 40 9 66 20 40
17 45 23 35 35 -7 8 -21 15 -32 15 -24 0 -34 26 -18 45 16 19 24 19 40 0z
m-265 -555 c0 -16 -6 -26 -18 -28 -19 -4 -32 20 -23 44 9 25 41 13 41 -16z
m115 -275 c0 -8 -7 -15 -15 -15 -8 0 -15 7 -15 15 0 8 7 15 15 15 8 0 15 -7
15 -15z m494 -61 c21 -8 21 -43 0 -51 -8 -3 -23 1 -31 10 -13 13 -14 19 -3 31
14 18 13 18 34 10z m-256 -17 c6 -7 9 -22 6 -34 -3 -11 1 -27 10 -36 20 -19
21 -37 2 -37 -7 0 -16 14 -19 30 -4 17 -13 30 -21 30 -19 0 -29 29 -15 46 14
17 24 18 37 1z m582 -51 c0 -8 -4 -17 -9 -21 -12 -7 -24 12 -16 25 9 15 25 12
25 -4z m-2616 -311 c9 -14 23 -36 32 -50 16 -25 16 -25 -19 -25 -30 0 -39 6
-57 35 -12 19 -25 35 -29 35 -3 0 -15 -16 -25 -35 -16 -29 -25 -35 -53 -35
-18 0 -33 3 -33 6 0 3 14 25 30 50 30 43 32 44 84 44 46 0 56 -3 70 -25z
m-2054 -136 c84 -19 139 -82 155 -176 l7 -43 -41 0 c-38 0 -41 2 -41 28 0 41
-32 93 -71 114 -69 39 -153 7 -185 -69 -19 -45 -19 -281 0 -327 22 -52 60 -76
122 -76 47 0 59 4 89 33 26 23 37 44 43 77 7 44 9 45 46 48 l39 3 -7 -43 c-11
-68 -44 -126 -89 -156 -36 -24 -50 -27 -122 -27 -72 0 -86 3 -122 27 -66 43
-86 99 -91 244 -8 223 35 314 163 345 42 10 54 10 105 -2z m4080 0 c84 -19
139 -82 155 -176 l7 -43 -41 0 c-38 0 -41 2 -41 28 0 41 -32 93 -71 114 -69
39 -153 7 -185 -69 -19 -45 -19 -281 0 -327 22 -52 60 -76 122 -76 47 0 59 4
89 33 26 23 37 44 43 77 7 44 9 45 46 48 l39 3 -7 -43 c-11 -68 -44 -126 -89
-156 -36 -24 -50 -27 -122 -27 -72 0 -86 3 -122 27 -66 43 -86 99 -91 244 -8
223 35 314 163 345 42 10 54 10 105 -2z m-2930 -39 l0 -30 -75 0 -75 0 0 -235
0 -235 75 0 75 0 0 -35 0 -35 -190 0 -190 0 0 35 0 35 75 0 75 0 0 235 0 235
-75 0 -75 0 0 30 0 30 190 0 190 0 0 -30z m1010 0 l0 -30 -145 0 -145 0 0
-100 0 -100 145 0 145 0 0 -35 0 -35 -145 0 -145 0 0 -100 0 -100 150 0 150 0
0 -35 0 -35 -185 0 -185 0 0 300 0 300 180 0 180 0 0 -30z m855 -192 c37 -123
77 -252 89 -288 l21 -65 3 288 2 287 35 0 35 0 0 -300 0 -301 -72 3 -73 3 -85
277 c-47 152 -88 280 -92 284 -5 4 -8 -122 -8 -279 l0 -287 -35 0 -35 0 0 300
0 300 74 0 73 0 68 -222z m2215 192 l0 -30 -75 0 -75 0 0 -235 0 -235 75 0 75
0 0 -35 0 -35 -190 0 -190 0 0 35 0 35 75 0 75 0 0 235 0 235 -75 0 -75 0 0
30 0 30 190 0 190 0 0 -30z m913 -17 c43 -144 160 -530 164 -540 4 -9 -7 -13
-35 -13 l-40 0 -23 75 -22 75 -128 0 -128 0 -22 -75 -22 -75 -39 0 c-21 0 -38
2 -38 5 0 5 163 548 175 583 3 8 27 12 74 12 l70 0 14 -47z m2077 24 c73 -38
84 -73 88 -261 4 -179 -6 -226 -59 -270 -43 -37 -89 -46 -226 -46 l-123 0 0
35 c0 31 3 35 25 35 l25 0 0 235 0 235 -25 0 c-21 0 -25 5 -25 30 l0 30 138 0
c125 0 143 -2 182 -23z m1034 -199 c36 -123 77 -258 91 -301 l24 -78 -41 3
-42 3 -19 73 -20 73 -131 -3 -131 -3 -20 -72 -20 -73 -37 0 c-21 0 -38 4 -38
9 0 10 170 573 177 584 2 4 35 7 72 7 l68 0 67 -222z m-1504 -533 l0 -55 -285
0 -285 0 0 55 0 55 285 0 285 0 0 -55z m1740 -84 c0 -5 -89 -272 -199 -593
l-198 -583 -65 -3 -65 -3 199 583 c109 321 200 589 203 596 5 14 125 17 125 3z
m-7690 -101 c70 -36 84 -69 156 -380 36 -157 70 -291 76 -297 17 -21 66 -16
82 10 7 12 42 144 76 292 35 154 71 287 83 310 32 58 86 85 170 85 111 0 175
-41 196 -126 7 -26 11 -171 11 -378 l0 -336 -75 0 -75 0 0 338 c0 250 -3 341
-12 350 -16 16 -73 15 -87 -2 -6 -7 -40 -137 -76 -289 -77 -332 -93 -368 -170
-397 -47 -18 -141 -14 -183 8 -71 36 -86 71 -158 382 -36 157 -70 291 -76 298
-13 15 -70 16 -86 0 -9 -9 -12 -100 -12 -350 l0 -338 -75 0 -76 0 3 363 c3
357 3 363 26 399 32 52 91 78 175 78 48 0 79 -6 107 -20z m3964 6 c18 -7 42
-27 53 -42 17 -23 303 -759 303 -779 0 -3 -35 -5 -79 -5 l-79 0 -55 148 c-31
81 -89 235 -130 342 l-74 195 -33 0 -34 0 -135 -342 -134 -343 -79 0 c-43 0
-78 3 -78 6 0 17 295 752 311 775 10 14 33 33 51 42 41 21 147 22 192 3z
m1800 0 c18 -7 42 -27 53 -42 17 -23 303 -759 303 -779 0 -3 -35 -5 -79 -5
l-79 0 -55 148 c-31 81 -89 235 -130 342 l-74 195 -33 0 -34 0 -135 -342 -134
-343 -79 0 c-43 0 -78 3 -78 6 0 17 295 752 311 775 10 14 33 33 51 42 41 21
147 22 192 3z m-7244 -71 l0 -75 -195 0 c-153 0 -204 -3 -232 -15 -81 -34
-114 -92 -121 -215 -8 -146 24 -236 101 -278 27 -14 67 -18 237 -22 l205 -5 3
-73 3 -74 -218 4 c-262 5 -289 12 -375 98 -46 46 -60 68 -77 123 -57 184 -25
404 72 505 36 38 108 78 164 91 21 5 127 9 236 10 l197 1 0 -75z m792 46 c102
-40 174 -133 198 -258 16 -78 8 -251 -14 -320 -34 -106 -129 -190 -244 -214
-76 -15 -314 -7 -370 13 -136 50 -208 163 -219 344 -10 157 21 274 92 353 82
91 152 112 355 108 121 -3 154 -7 202 -26z m2256 14 c62 -19 115 -62 145 -119
16 -31 21 -59 21 -116 0 -87 -26 -153 -78 -197 -60 -51 -89 -57 -281 -63
l-180 -5 -3 -157 -3 -158 -69 0 -70 0 0 190 c0 113 4 198 11 213 22 48 40 52
262 57 l209 5 30 34 c27 30 30 39 25 84 -3 39 -11 56 -31 74 -27 23 -31 23
-267 23 l-239 0 0 75 0 75 233 0 c181 0 245 -3 285 -15z m452 -277 c0 -398 -6
-388 219 -388 l133 0 34 34 34 34 0 306 0 306 76 0 76 0 -4 -322 -3 -323 -27
-55 c-52 -105 -114 -130 -328 -130 -214 0 -276 25 -328 130 l-27 55 -3 323 -4
322 76 0 76 0 0 -292z m1328 220 l-3 -73 -122 -3 -123 -3 0 -339 0 -340 -70 0
-70 0 0 340 0 340 -120 0 -120 0 0 75 0 75 315 0 316 0 -3 -72z m1762 -3 l0
-75 -197 0 c-173 0 -203 -3 -240 -19 -72 -33 -112 -119 -113 -243 0 -129 35
-208 110 -245 41 -22 57 -23 242 -23 l198 0 0 -76 0 -76 -217 4 c-216 3 -218
3 -281 32 -113 52 -174 150 -192 306 -17 146 17 298 84 376 39 46 117 91 178
103 24 5 130 9 236 10 l192 1 0 -75z m1752 51 c57 -21 130 -83 163 -140 40
-68 58 -166 52 -286 -9 -194 -78 -306 -219 -358 -56 -20 -294 -28 -370 -13
-115 24 -210 108 -244 214 -21 66 -30 247 -15 318 23 110 86 205 161 244 69
36 132 45 280 41 105 -2 158 -8 192 -20z m-9162 -113 l0 -48 -285 -110 c-157
-60 -285 -115 -285 -122 0 -10 110 -56 450 -186 l115 -45 3 -50 3 -50 -299
118 c-335 132 -338 133 -352 160 -20 38 -5 121 24 134 37 17 612 245 619 246
4 0 7 -21 7 -47z m10370 -73 c344 -135 356 -142 347 -218 -3 -24 -11 -51 -19
-59 -8 -7 -155 -70 -327 -138 l-312 -123 3 50 3 50 160 63 c88 34 215 83 283
109 67 26 122 53 122 59 0 7 -128 61 -285 122 l-285 110 0 47 c0 27 1 48 3 48
1 0 139 -54 307 -120z m-3170 -740 c0 -147 -36 -200 -136 -200 l-54 0 0 44 c0
38 4 46 23 52 33 10 37 21 37 112 l0 82 65 0 65 0 0 -90z"/>
<path d="M9722 4053 c-44 -8 -45 -46 -6 -126 48 -96 65 -104 156 -75 52 17 68
26 68 41 0 10 4 26 10 36 7 15 -1 26 -45 64 -30 27 -60 45 -68 42 -7 -3 -20 1
-27 10 -12 14 -40 17 -88 8z"/>
<path d="M9863 3837 c-39 -13 -63 -27 -66 -38 -7 -27 109 -209 133 -209 21 0
22 2 45 116 l17 82 -28 36 c-16 20 -31 36 -34 35 -3 0 -33 -10 -67 -22z"/>
<path d="M9544 3799 c-4 -7 27 -45 72 -90 63 -62 83 -77 100 -73 18 5 23 16
29 69 10 98 3 105 -105 105 -54 0 -91 -4 -96 -11z"/>
<path d="M9415 3748 c-74 -67 -66 -76 107 -115 82 -18 147 -28 152 -23 11 11
-133 170 -154 170 -8 0 -24 3 -36 6 -15 4 -34 -7 -69 -38z"/>
<path d="M9981 3683 c-12 -58 -20 -108 -17 -111 4 -3 29 5 56 18 37 17 50 29
50 45 0 11 5 26 12 33 9 9 8 24 -2 66 -12 51 -14 54 -45 54 l-32 0 -22 -105z"/>
<path d="M9768 3774 c-12 -20 -19 -144 -9 -144 6 0 17 -12 24 -27 17 -32 105
-61 114 -36 8 21 -119 225 -129 207z"/>
<path d="M9355 3637 c-30 -18 -35 -28 -35 -78 0 -76 10 -107 39 -122 24 -12
37 -8 169 52 106 49 142 69 142 83 0 10 -3 18 -6 18 -3 0 -64 14 -136 30 -144
33 -145 34 -173 17z"/>
<path d="M9779 3544 c-11 -21 -7 -34 36 -116 51 -100 61 -115 71 -106 3 4 14
44 24 90 l18 83 -24 26 c-14 14 -44 30 -68 36 -41 9 -45 8 -57 -13z"/>
<path d="M9724 3512 c-6 -4 -25 -49 -43 -99 -43 -118 -40 -123 73 -123 48 0
87 5 93 11 9 9 -2 38 -40 115 -50 101 -60 112 -83 96z"/>
<path d="M11490 2548 c-18 -62 -40 -141 -50 -175 l-19 -63 108 0 108 0 -51
175 c-28 96 -54 175 -57 175 -3 0 -21 -51 -39 -112z"/>
<path d="M13498 2624 c-5 -4 -8 -110 -8 -236 l0 -228 61 0 c72 0 121 20 140
58 8 17 14 76 17 157 4 153 -7 200 -54 227 -33 19 -144 35 -156 22z"/>
<path d="M14561 2594 c-11 -38 -34 -116 -50 -173 -17 -57 -31 -105 -31 -107 0
-2 47 -4 105 -4 58 0 105 3 105 8 0 15 -94 327 -101 336 -4 5 -17 -22 -28 -60z"/>
<path d="M6195 1592 c-89 -42 -121 -121 -113 -283 4 -109 29 -165 88 -202 31
-19 52 -22 173 -25 160 -4 211 8 251 61 42 57 59 156 46 264 -11 88 -37 139
-87 173 -34 23 -46 25 -177 28 -121 2 -147 0 -181 -16z"/>
<path d="M13768 1600 c-89 -27 -131 -106 -132 -250 -1 -146 35 -223 118 -255
36 -14 71 -16 183 -13 129 3 142 5 176 28 55 37 80 97 85 204 8 156 -25 238
-113 277 -32 15 -64 18 -165 18 -69 0 -137 -4 -152 -9z"/>
<path d="M15382 4988 c3 -7 74 -211 157 -453 222 -639 249 -716 255 -722 12
-12 36 8 36 29 0 13 11 140 25 283 14 143 36 382 50 530 14 149 27 287 31 308
l6 37 -282 0 c-222 0 -281 -3 -278 -12z"/>
<path d="M15976 4918 c-6 -75 -26 -286 -86 -902 -11 -116 -19 -210 -17 -210 1
-1 21 -16 44 -34 23 -17 45 -32 48 -32 4 0 102 59 218 132 117 72 314 195 438
272 l225 141 -93 320 c-51 176 -98 337 -103 358 l-11 37 -328 0 -328 0 -7 -82z"/>
<path d="M16690 4994 c0 -8 183 -640 195 -671 2 -8 64 25 167 89 90 55 168
106 175 112 8 7 18 90 28 225 15 200 15 214 -1 232 -16 18 -35 19 -291 19
-150 0 -273 -3 -273 -6z"/>
<path d="M17300 4986 c0 -20 210 -282 223 -278 23 7 447 275 447 283 0 5 -151
9 -335 9 -278 0 -335 -2 -335 -14z"/>
<path d="M18320 4987 c0 -7 45 -43 99 -80 l100 -67 15 53 c8 28 18 64 21 80
l7 27 -121 0 c-91 0 -121 -3 -121 -13z"/>
<path d="M18572 4914 c-12 -47 -20 -89 -18 -93 3 -4 79 -57 168 -118 184 -124
257 -153 302 -120 16 11 16 18 5 62 -12 45 -14 48 -21 25 -5 -17 -6 -13 -2 14
5 35 1 43 -33 80 -35 38 -35 39 -4 11 l34 -30 -7 25 c-3 14 -18 71 -32 127
l-26 102 -172 0 -171 0 -23 -85z m328 -61 c0 -8 -9 0 -50 45 l-45 47 48 -45
c26 -24 47 -45 47 -47z"/>
<path d="M18990 4989 c0 -6 5 -31 12 -57 9 -38 13 -42 20 -26 6 13 7 7 5 -21
-6 -66 39 -214 76 -252 17 -18 37 -33 44 -33 28 0 93 -41 119 -75 32 -42 41
-43 72 -7 20 23 21 24 8 2 -9 -13 -16 -27 -16 -31 0 -3 28 -12 63 -19 34 -8
184 -43 332 -80 l270 -66 3 75 3 76 -53 49 c-98 91 -173 161 -245 229 -39 37
-74 67 -78 67 -4 0 -16 11 -27 25 -11 14 -24 22 -30 19 -6 -4 -8 -2 -5 3 4 6
-25 38 -63 72 l-69 62 -220 -1 c-139 -1 -221 -5 -221 -11z"/>
<path d="M19535 4950 c26 -27 53 -46 58 -43 6 3 7 1 4 -4 -9 -14 19 -37 34
-27 7 4 9 3 6 -3 -8 -12 207 -216 217 -206 3 3 6 1 6 -6 0 -7 6 -18 13 -24 7
-7 39 -37 70 -67 l57 -54 0 242 0 242 -257 0 -257 0 49 -50z m242 -22 c-3 -8
-6 -5 -6 6 -1 11 2 17 5 13 3 -3 4 -12 1 -19z"/>
<path d="M17770 4804 c-118 -74 -215 -139 -215 -144 0 -6 83 -116 185 -245
144 -183 187 -231 192 -218 10 25 151 684 147 687 -55 35 -89 56 -91 56 -2 -1
-100 -61 -218 -136z"/>
<path d="M17296 4888 c-3 -18 -8 -89 -11 -158 -3 -69 -8 -138 -12 -154 l-5
-29 38 24 c22 12 71 44 110 69 l72 45 -94 118 c-93 117 -93 117 -98 85z"/>
<path d="M18228 4896 c-28 -15 -38 -28 -38 -46 -1 -55 34 -470 39 -470 3 0 43
47 88 104 82 103 83 104 68 132 -19 37 -19 77 0 115 16 29 15 30 -46 109 -34
44 -65 80 -68 79 -3 -1 -23 -11 -43 -23z"/>
<path d="M18326 4908 c6 -10 54 -72 94 -121 4 -4 23 -4 44 0 l37 8 -91 63
c-51 35 -88 57 -84 50z"/>
<path d="M18126 4859 c-3 -8 -16 -66 -30 -129 -14 -63 -43 -198 -65 -300 -22
-102 -43 -203 -47 -224 l-7 -39 44 7 c50 8 63 18 121 93 l41 54 -22 272 c-12
149 -24 273 -26 276 -3 2 -7 -2 -9 -10z"/>
<path d="M18605 4699 c4 -19 9 -35 10 -37 5 -5 117 -33 120 -30 2 2 -29 25
-67 52 l-70 49 7 -34z"/>
<path d="M3480 4670 c-8 -10 -70 -80 -137 -154 l-123 -134 43 -59 c23 -32 96
-134 161 -226 65 -92 121 -166 123 -164 8 9 -20 614 -33 710 -7 52 -12 55 -34
27z"/>
<path d="M17390 4568 c-63 -39 -116 -72 -118 -73 -4 -3 -32 -401 -32 -459 l0
-48 33 6 c131 28 628 153 628 159 0 13 -375 486 -386 486 -5 1 -62 -31 -125
-71z"/>
<path d="M19080 4628 c0 -18 18 -34 28 -24 3 4 -2 14 -11 23 -16 16 -17 16
-17 1z"/>
<path d="M18583 4602 l-21 -29 65 -116 c35 -64 70 -117 76 -117 12 0 115 23
180 41 32 8 37 14 37 39 0 16 4 40 10 54 9 24 5 28 -48 64 -42 29 -81 44 -152
61 -52 12 -102 24 -111 27 -9 2 -24 -8 -36 -24z"/>
<path d="M18327 4447 c-96 -119 -98 -123 -94 -165 3 -24 7 -45 10 -48 5 -5 73
10 270 58 30 8 46 16 43 24 -3 7 -15 60 -28 119 -23 108 -28 116 -78 128 -23
6 -35 -7 -123 -116z"/>
<path d="M18534 4545 c3 -11 16 -67 29 -125 l24 -105 29 3 c16 2 32 6 36 10 4
4 -22 59 -58 122 -36 63 -63 106 -60 95z"/>
<path d="M805 4438 c-58 -68 -58 -67 -13 -142 22 -37 43 -64 47 -59 4 4 24 31
45 60 41 58 42 52 -14 140 l-28 44 -37 -43z"/>
<path d="M17069 4368 c-90 -55 -165 -102 -166 -103 -4 -3 89 -319 96 -327 3
-4 48 3 100 14 73 17 95 26 101 42 7 18 40 466 35 474 -1 1 -76 -44 -166 -100z"/>
<path d="M19300 4438 c0 -14 14 -37 33 -56 26 -25 84 -49 328 -131 163 -56
301 -101 306 -101 18 0 34 55 31 100 -3 42 -4 43 -53 55 -293 73 -478 115
-485 110 -6 -4 -10 -2 -10 3 0 5 -26 14 -57 21 -32 7 -66 15 -75 17 -14 4 -18
-1 -18 -18z"/>
<path d="M19300 4388 c0 -9 7 -19 16 -22 25 -10 27 -1 4 19 -17 15 -20 16 -20
3z"/>
<path d="M1677 4193 c-24 -231 -25 -220 21 -225 20 -3 39 -4 40 -2 6 5 -30
379 -37 387 -4 4 -15 -68 -24 -160z"/>
<path d="M3141 4294 c-34 -37 -61 -70 -61 -73 1 -3 105 -92 233 -198 174 -143
233 -187 235 -173 2 10 -72 123 -172 264 l-174 246 -61 -66z"/>
<path d="M18810 4317 c-47 -11 -87 -22 -88 -23 -2 -1 24 -52 58 -114 34 -61
63 -110 65 -108 1 2 32 45 68 97 l66 94 -22 38 c-25 45 -28 45 -147 16z"/>
<path d="M679 4290 c-19 -23 -33 -47 -31 -51 1 -5 -2 -8 -7 -6 -5 1 -31 -23
-56 -53 l-48 -55 34 -7 c68 -14 162 -18 176 -7 7 6 14 28 14 48 1 24 3 28 6
13 4 -19 7 -21 19 -11 19 16 17 39 -6 69 -11 14 -20 30 -20 35 0 6 -11 23 -23
39 l-24 29 -34 -43z"/>
<path d="M19267 4300 c-10 -16 -21 -30 -25 -30 -4 0 -15 -7 -25 -14 -17 -13
-13 -28 74 -263 51 -136 95 -250 98 -253 3 -3 6 -10 6 -15 0 -6 18 -57 39
-114 l39 -102 55 53 c31 29 62 59 70 66 13 12 13 15 1 24 -11 7 -9 8 6 4 15
-4 45 19 119 89 92 86 99 95 85 112 -13 16 -13 17 4 4 15 -12 24 -7 85 47 51
45 66 65 65 83 -2 13 -5 44 -7 69 l-4 44 -261 87 c-144 48 -261 85 -261 83 0
-3 -12 2 -27 10 -24 12 -108 46 -116 46 -1 0 -11 -13 -20 -30z m199 -62 l29
-33 -32 29 c-31 28 -38 36 -30 36 2 0 16 -15 33 -32z m154 -165 c0 -8 -9 0
-50 45 l-45 47 48 -45 c26 -24 47 -45 47 -47z m80 -88 c19 -19 32 -35 29 -35
-3 0 -20 16 -39 35 -19 19 -32 35 -29 35 3 0 20 -16 39 -35z"/>
<path d="M902 4249 l-43 -60 31 -54 c17 -30 35 -57 40 -60 13 -8 170 -28 176
-22 9 9 -141 236 -153 232 -7 -2 -10 2 -6 11 10 26 -1 14 -45 -47z"/>
<path d="M18623 4273 c-13 -2 -23 -7 -23 -9 0 -12 90 -397 94 -401 4 -4 114
149 121 170 3 7 -24 64 -59 127 -67 120 -73 125 -133 113z"/>
<path d="M18157 4236 l-29 -37 29 7 c36 9 35 7 31 40 l-3 28 -28 -38z"/>
<path d="M18405 4219 c-87 -22 -160 -41 -161 -42 -6 -6 34 -435 41 -448 5 -8
45 -60 88 -116 79 -101 80 -102 97 -80 9 12 57 81 108 153 l91 131 -50 219
c-28 120 -51 219 -52 220 -1 1 -74 -16 -162 -37z"/>
<path d="M18999 4208 c-29 -39 -70 -99 -106 -150 l-25 -37 20 -35 c14 -24 17
-37 9 -45 -7 -7 -16 -2 -29 20 l-19 31 -18 -24 c-9 -12 -42 -58 -71 -100 l-53
-78 72 -317 c98 -431 87 -393 119 -393 16 0 37 -7 48 -15 25 -19 27 -19 58 6
22 18 25 24 14 38 -10 13 -10 14 2 4 14 -13 9 -17 157 123 l62 59 -59 105
c-32 58 -64 110 -69 117 -6 7 -11 15 -11 19 0 3 -33 65 -72 138 l-73 131 -5
-70 -6 -70 -4 93 c-7 129 8 124 95 -35 39 -69 76 -132 83 -139 7 -7 12 -17 12
-21 -1 -12 120 -232 130 -238 6 -3 47 30 92 73 l82 79 -54 146 c-42 113 -57
144 -69 140 -13 -4 -14 -3 -2 5 15 10 8 36 -34 137 -7 17 -36 94 -65 171 l-52
142 -51 5 c-29 2 -59 8 -68 11 -12 5 -24 -2 -40 -26z m-42 -120 c-3 -8 -6 -5
-6 6 -1 11 2 17 5 13 3 -3 4 -12 1 -19z m-10 -115 c-3 -10 -5 -4 -5 12 0 17 2
24 5 18 2 -7 2 -21 0 -30z m273 -170 c0 -5 -5 -15 -10 -23 -7 -12 -9 -10 -7 8
1 19 17 33 17 15z m-50 -123 c0 -5 -2 -10 -4 -10 -3 0 -8 5 -11 10 -3 6 -1 10
4 10 6 0 11 -4 11 -10z m-213 -202 c-3 -8 -6 -5 -6 6 -1 11 2 17 5 13 3 -3 4
-12 1 -19z m0 -40 c-3 -8 -6 -5 -6 6 -1 11 2 17 5 13 3 -3 4 -12 1 -19z m10
-200 c-3 -8 -6 -5 -6 6 -1 11 2 17 5 13 3 -3 4 -12 1 -19z"/>
<path d="M3587 4078 c2 -84 6 -171 9 -193 5 -41 46 -106 59 -93 6 6 -62 426
-70 436 -2 2 -1 -66 2 -150z"/>
<path d="M16422 3966 c-233 -145 -429 -269 -435 -276 -7 -7 -7 -10 -1 -7 9 5
253 65 754 183 107 26 199 50 203 54 10 8 -75 302 -88 307 -6 1 -201 -116
-433 -261z"/>
<path d="M3009 4151 c-8 -11 -74 -85 -148 -166 -73 -80 -132 -148 -129 -150 2
-2 141 -22 308 -45 168 -22 320 -43 338 -46 70 -11 50 19 -149 226 -106 110
-195 200 -199 200 -4 0 -14 -9 -21 -19z"/>
<path d="M18137 4155 c-53 -15 -69 -25 -98 -66 l-20 -28 101 -127 c95 -120
100 -125 100 -93 0 64 -23 329 -29 328 -3 0 -28 -7 -54 -14z"/>
<path d="M0 3888 c1 -265 4 -322 20 -316 15 6 451 521 445 526 -3 3 -18 7 -33
9 -15 1 -110 14 -212 28 -102 14 -193 25 -203 25 -16 0 -17 -19 -17 -272z
m187 -64 c-3 -3 -12 -4 -19 -1 -8 3 -5 6 6 6 11 1 17 -2 13 -5z m-110 -150
c-3 -3 -12 -4 -19 -1 -8 3 -5 6 6 6 11 1 17 -2 13 -5z"/>
<path d="M806 4115 c-12 -19 -13 -25 -4 -26 7 0 26 -3 41 -5 l29 -5 -18 31
c-22 36 -27 37 -48 5z"/>
<path d="M3196 4069 c206 -220 268 -279 288 -273 47 14 57 5 -277 277 l-62 51
51 -55z"/>
<path d="M17986 4105 c4 -8 7 -15 9 -15 1 0 8 7 15 15 10 13 9 15 -8 15 -15 0
-20 -5 -16 -15z"/>
<path d="M415 3983 c-55 -64 -99 -120 -98 -124 2 -5 -1 -9 -6 -9 -14 0 -157
-170 -153 -182 1 -5 -1 -7 -6 -4 -5 3 -37 -29 -72 -71 l-63 -76 13 -113 13
-112 45 -12 c25 -6 48 -7 52 -3 42 48 119 166 114 175 -4 6 -3 8 3 5 13 -8
347 449 338 463 -3 5 0 10 8 10 14 0 57 52 57 70 0 5 4 10 8 10 5 0 18 13 30
29 l21 29 -87 12 c-48 6 -94 13 -102 15 -9 3 -53 -40 -115 -112z m-142 -330
c-7 -2 -21 -2 -30 0 -10 3 -4 5 12 5 17 0 24 -2 18 -5z m100 -10 c-7 -2 -19
-2 -25 0 -7 3 -2 5 12 5 14 0 19 -2 13 -5z"/>
<path d="M17735 4059 c-88 -21 -237 -58 -331 -80 l-171 -42 -7 -81 c-3 -45
-11 -155 -16 -246 -6 -91 -11 -178 -13 -195 l-2 -30 102 -21 103 -21 27 36
c15 20 122 153 238 296 203 251 210 262 227 330 20 78 22 95 11 94 -5 0 -80
-18 -168 -40z"/>
<path d="M17948 4055 c-3 -14 -2 -25 1 -25 10 0 30 37 24 44 -12 12 -21 6 -25
-19z"/>
<path d="M769 4038 c0 -19 -1 -20 -7 -5 -6 15 -10 13 -27 -15 -10 -18 -25 -39
-32 -46 -7 -8 -11 -18 -8 -23 4 -5 0 -9 -7 -10 -7 0 -128 -159 -269 -353
l-256 -353 19 -22 c10 -13 18 -30 18 -38 0 -13 9 -14 47 -8 27 4 52 9 57 12
11 7 66 13 126 13 34 1 41 3 30 11 -11 8 -7 9 18 5 19 -3 79 1 135 9 166 25
147 -1 147 205 0 162 -2 179 -17 183 -17 4 -17 5 0 6 15 1 17 13 17 98 0 53 2
94 5 92 2 -3 5 -130 5 -282 1 -152 4 -277 8 -277 4 0 127 18 275 40 147 22
269 40 272 40 12 0 3 20 -19 47 -13 15 -24 33 -26 38 -4 22 -272 455 -281 455
-6 0 -8 4 -5 8 2 4 -19 46 -48 92 -53 84 -53 85 -95 85 -22 0 -41 3 -41 8 0 4
-9 7 -20 7 -14 0 -20 -7 -21 -22z m111 -193 c19 -19 32 -35 29 -35 -3 0 -20
16 -39 35 -19 19 -32 35 -29 35 3 0 20 -16 39 -35z m100 -110 c19 -19 32 -35
29 -35 -3 0 -20 16 -39 35 -19 19 -32 35 -29 35 3 0 20 -16 39 -35z m100 -110
c19 -19 32 -35 29 -35 -3 0 -20 16 -39 35 -19 19 -32 35 -29 35 3 0 20 -16 39
-35z m-504 -4 c-5 -8 -56 -3 -56 5 0 2 14 4 31 4 16 0 28 -4 25 -9z m87 -8
c-7 -2 -21 -2 -30 0 -10 3 -4 5 12 5 17 0 24 -2 18 -5z m285 -30 c-10 -2 -26
-2 -35 0 -10 3 -2 5 17 5 19 0 27 -2 18 -5z m105 -10 c-7 -2 -19 -2 -25 0 -7
3 -2 5 12 5 14 0 19 -2 13 -5z m117 -48 c13 -14 21 -25 18 -25 -2 0 -15 11
-28 25 -13 14 -21 25 -18 25 2 0 15 -11 28 -25z m95 -105 c10 -11 16 -20 13
-20 -3 0 -13 9 -23 20 -10 11 -16 20 -13 20 3 0 13 -9 23 -20z m-830 -48 c-3
-3 -11 0 -18 7 -9 10 -8 11 6 5 10 -3 15 -9 12 -12z m762 -28 c-3 -3 -12 -4
-19 -1 -8 3 -5 6 6 6 11 1 17 -2 13 -5z m-150 -30 c-3 -3 -12 -4 -19 -1 -8 3
-5 6 6 6 11 1 17 -2 13 -5z m-210 -40 c-3 -3 -12 -4 -19 -1 -8 3 -5 6 6 6 11
1 17 -2 13 -5z m-142 -24 c-3 -5 -12 -10 -18 -10 -7 0 -6 4 3 10 19 12 23 12
15 0z m-58 -16 c-3 -3 -12 -4 -19 -1 -8 3 -5 6 6 6 11 1 17 -2 13 -5z"/>
<path d="M961 4019 c8 -13 39 -63 69 -111 30 -48 58 -84 64 -81 5 3 6 1 2 -5
-5 -9 252 -449 284 -485 5 -6 160 10 168 18 5 5 -99 169 -109 173 -5 2 -9 8
-9 14 0 16 -111 188 -121 188 -5 0 -8 4 -7 8 3 9 -132 232 -159 263 -9 11 -38
19 -86 23 -40 4 -81 10 -92 13 -18 5 -18 4 -4 -18z m382 -476 c-7 -2 -21 -2
-30 0 -10 3 -4 5 12 5 17 0 24 -2 18 -5z"/>
<path d="M17961 3994 c-32 -43 -39 -67 -108 -382 -40 -184 -71 -337 -69 -339
6 -6 401 -83 427 -83 19 0 30 9 43 33 17 31 17 43 -3 276 -11 134 -24 248 -29
255 -34 44 -207 263 -216 273 -8 9 -19 0 -45 -33z"/>
<path d="M1182 4001 c2 -4 68 -112 148 -239 123 -196 149 -231 170 -233 18 -1
20 -3 7 -6 -10 -3 -17 -8 -15 -11 12 -27 54 -92 59 -92 8 0 22 187 15 199 -4
5 -2 11 3 13 8 3 44 309 36 316 -2 2 -86 15 -187 28 -101 13 -196 26 -211 29
-16 2 -27 1 -25 -4z"/>
<path d="M19921 3886 c-35 -35 -61 -68 -58 -73 3 -5 -2 -9 -12 -9 -10 1 -76
-53 -147 -120 -71 -66 -150 -139 -175 -163 l-47 -41 35 -93 c19 -50 42 -101
51 -111 9 -11 12 -16 5 -12 -7 4 -1 -23 14 -61 14 -37 30 -82 36 -100 9 -29
14 -32 58 -35 l48 -3 54 135 c44 111 51 136 38 141 -12 4 -11 7 5 11 15 4 38
52 97 205 76 196 77 201 77 291 0 50 -4 93 -8 96 -5 3 -37 -24 -71 -58z m15
-158 l29 -33 -32 29 c-31 28 -38 36 -30 36 2 0 16 -15 33 -32z m-349 -434 c-3
-3 -12 -4 -19 -1 -8 3 -5 6 6 6 11 1 17 -2 13 -5z"/>
<path d="M1656 3931 c-5 -8 -46 -365 -46 -402 0 -4 8 -10 18 -12 16 -4 16 -5
0 -6 -10 0 -20 -11 -22 -23 -10 -51 -15 -128 -7 -128 5 0 33 5 62 10 30 6 71
12 92 14 42 5 57 13 42 24 -6 4 -10 34 -11 67 -1 63 -34 448 -39 453 -9 10
-83 13 -89 3z m42 -76 c-3 -3 -9 2 -12 12 -6 14 -5 15 5 6 7 -7 10 -15 7 -18z
m29 -351 c-3 -3 -12 -4 -19 -1 -8 3 -5 6 6 6 11 1 17 -2 13 -5z m-20 -60 c-3
-3 -12 -4 -19 -1 -8 3 -5 6 6 6 11 1 17 -2 13 -5z"/>
<path d="M1780 3894 c0 -19 5 -78 11 -132 13 -108 15 -132 17 -196 2 -33 7
-46 20 -49 12 -3 13 -5 2 -6 -12 -1 -14 -12 -12 -48 2 -27 8 -52 12 -57 5 -5
52 -3 109 4 l101 13 0 28 c0 16 -9 91 -19 166 -11 76 -23 166 -27 199 -3 34
-10 67 -13 73 -7 10 -44 18 -168 35 -32 5 -33 3 -33 -30z m90 -458 c0 -2 -8
-10 -17 -17 -16 -13 -17 -12 -4 4 13 16 21 21 21 13z"/>
<path d="M17097 3906 c-48 -11 -86 -25 -83 -31 2 -5 34 -117 72 -248 43 -152
70 -232 75 -220 3 10 11 104 18 208 6 105 14 218 17 253 4 34 2 61 -2 61 -5
-1 -48 -11 -97 -23z"/>
<path d="M2030 3880 c0 -12 48 -373 55 -416 l5 -31 132 20 132 19 61 66 c33
37 101 112 152 167 50 55 90 102 88 103 -2 2 -50 10 -107 17 -555 75 -518 71
-518 55z"/>
<path d="M16740 3820 c-107 -26 -318 -77 -469 -113 -150 -36 -276 -69 -279
-72 -12 -12 16 -23 98 -38 115 -21 637 -122 840 -162 91 -18 166 -31 168 -30
2 2 -27 107 -64 234 -52 176 -72 231 -84 230 -8 -1 -103 -23 -210 -49z"/>
<path d="M17651 3609 c-111 -138 -203 -255 -204 -261 -2 -10 133 -43 254 -62
l36 -6 11 58 c6 31 33 160 61 286 28 127 49 231 48 233 -2 1 -94 -110 -206
-248z"/>
<path d="M2554 3647 c-80 -87 -144 -161 -142 -163 3 -2 81 8 174 22 192 28
776 114 780 114 3 0 16 77 15 87 -1 5 -155 28 -342 54 l-340 45 -145 -159z"/>
<path d="M18581 3613 c-83 -120 -93 -138 -82 -156 7 -11 78 -102 158 -203 100
-126 152 -184 166 -184 11 0 17 5 15 13 -3 6 -38 159 -79 339 -41 181 -76 328
-79 327 -3 0 -47 -61 -99 -136z"/>
<path d="M18284 3643 c3 -16 10 -95 17 -178 6 -82 12 -151 13 -152 4 -4 116
162 116 171 0 9 -139 186 -147 186 -2 0 -2 -12 1 -27z"/>
<path d="M19949 3497 c-40 -106 -44 -123 -30 -129 13 -5 12 -7 -4 -7 -16 -1
-31 -28 -78 -151 -33 -84 -56 -158 -53 -167 4 -9 9 -13 12 -10 8 7 44 -25 39
-34 -3 -4 3 -13 13 -20 9 -7 14 -9 10 -5 -4 5 -4 14 1 20 4 6 15 34 24 61 8
28 34 108 57 179 33 103 39 131 28 137 -10 7 -9 9 3 9 9 0 19 10 22 23 6 21 9
217 4 217 -1 0 -23 -55 -48 -123z"/>
<path d="M3340 3574 c-14 -4 -184 -29 -775 -115 -115 -17 -215 -36 -221 -42
-6 -7 -59 -65 -116 -129 l-105 -117 9 -63 c6 -35 11 -64 12 -65 4 -4 1220 518
1231 528 9 9 -5 10 -35 3z"/>
<path d="M15975 3551 c-7 -23 -46 15 548 -525 247 -224 452 -405 455 -401 4 3
32 70 63 148 l56 141 -25 35 c-42 63 -20 141 50 177 25 13 28 20 28 62 0 44
-22 148 -34 160 -3 3 -131 29 -283 59 -699 136 -841 163 -846 163 -3 0 -8 -9
-12 -19z"/>
<path d="M2770 3276 c-493 -211 -616 -267 -618 -283 -2 -11 13 -134 32 -274
19 -140 49 -360 66 -489 l32 -235 39 -17 39 -17 38 52 c21 29 203 282 403 562
201 281 428 598 506 706 l140 195 -27 32 c-14 18 -28 32 -31 32 -2 -1 -281
-119 -619 -264z"/>
<path d="M3450 3405 c-37 -50 -249 -347 -773 -1078 l-285 -398 21 -50 c18 -42
20 -56 11 -100 l-11 -51 51 -47 c28 -27 109 -101 180 -165 l130 -118 68 174
c38 95 122 308 188 473 65 165 202 512 305 770 102 259 201 507 219 552 l33
81 -50 4 c-50 3 -50 3 -87 -47z"/>
<path d="M18390 3338 c-59 -86 -70 -109 -68 -138 l3 -35 139 -27 c266 -53 286
-56 279 -44 -14 22 -273 346 -277 346 -3 0 -37 -46 -76 -102z"/>
<path d="M19360 3363 c-75 -71 -82 -81 -72 -100 7 -12 20 -20 29 -19 10 2 12
1 6 -1 -7 -3 -13 -7 -13 -10 0 -3 30 -59 66 -124 42 -76 72 -119 82 -120 11 0
12 -3 5 -6 -9 -3 -10 -10 -3 -24 15 -27 37 -23 54 10 9 16 30 41 47 55 l32 27
-53 142 c-29 78 -58 151 -63 162 -6 11 -11 27 -12 35 -1 8 -6 23 -11 33 -9 16
-20 9 -94 -60z m77 -99 c-3 -3 -12 -4 -19 -1 -8 3 -5 6 6 6 11 1 17 -2 13 -5z"/>
<path d="M2220 3409 c-30 -5 -70 -11 -89 -14 l-33 -6 7 -77 c4 -42 10 -81 14
-85 7 -7 154 146 175 181 8 13 6 14 -74 1z"/>
<path d="M1917 3365 c-43 -7 -81 -15 -83 -17 -3 -4 26 -330 30 -334 0 -1 15
-5 32 -8 29 -7 36 -2 108 78 l77 85 -11 83 c-16 127 -17 128 -48 127 -15 -1
-62 -7 -105 -14z m-10 -192 c-2 -32 -3 -6 -3 57 0 63 1 89 3 58 2 -32 2 -84 0
-115z"/>
<path d="M1672 3328 c-38 -7 -52 -14 -48 -23 10 -27 56 -95 64 -95 5 0 9 -6 9
-14 0 -21 107 -186 121 -186 15 0 15 22 2 148 -20 195 -16 182 -58 181 -20 -1
-61 -6 -90 -11z m58 -82 c0 -2 -8 -10 -17 -17 -16 -13 -17 -12 -4 4 13 16 21
21 21 13z"/>
<path d="M17190 3306 c0 -35 31 -166 40 -166 8 1 133 160 129 164 -2 2 -41 10
-86 18 l-83 15 0 -31z"/>
<path d="M1515 3305 c-5 -2 -31 -6 -58 -10 -45 -6 -46 -7 -36 -28 7 -12 26
-40 43 -61 16 -22 31 -45 32 -52 1 -7 7 -20 12 -30 9 -16 11 -14 16 16 11 70
17 170 9 169 -4 0 -12 -2 -18 -4z"/>
<path d="M19951 3165 c-24 -77 -47 -149 -51 -160 -22 -60 -30 -96 -30 -134 0
-41 -19 -90 -46 -122 -12 -13 -2 -32 72 -140 48 -68 91 -128 95 -134 5 -5 9
134 9 324 0 263 -3 331 -12 325 -10 -6 -10 -4 0 8 9 11 12 41 10 95 l-3 79
-44 -141z m29 -59 c0 -2 -8 -10 -17 -17 -16 -13 -17 -12 -4 4 13 16 21 21 21
13z"/>
<path d="M17326 3206 l-75 -94 20 -40 c24 -48 24 -48 250 -58 l156 -6 23 111
c13 61 21 113 19 115 -2 2 -69 15 -149 30 -80 15 -150 29 -157 31 -6 2 -45
-38 -87 -89z"/>
<path d="M1574 3189 c-9 -104 -3 -132 26 -106 12 10 12 9 2 -4 -6 -9 -9 -18
-6 -21 2 -3 -2 -8 -10 -11 -10 -4 -13 -1 -10 7 3 8 1 17 -5 21 -21 12 -11 -30
19 -82 28 -49 33 -53 67 -53 l37 0 -30 33 c-18 21 -15 19 9 -5 46 -46 67 -48
91 -7 l18 30 -51 82 c-31 50 -56 81 -66 81 -11 -1 -13 2 -6 10 7 8 -1 29 -27
69 -20 31 -40 57 -43 57 -3 0 -10 -45 -15 -101z"/>
<path d="M1245 3265 c-44 -7 -150 -22 -235 -35 -85 -12 -162 -24 -170 -27 -8
-3 -27 -5 -42 -4 -28 2 -28 2 -30 -61 l-2 -63 -3 58 c-3 38 -8 57 -17 57 -7 0
-101 -13 -209 -30 -108 -16 -210 -30 -227 -30 -16 0 -30 -4 -30 -9 0 -5 -9 -7
-19 -4 -11 3 -28 0 -38 -6 -17 -10 -17 -10 0 -11 10 0 133 -13 274 -30 140
-16 257 -30 258 -30 2 0 6 8 8 18 4 16 5 16 6 0 0 -10 2 -18 4 -18 1 0 56 -7
122 -15 66 -8 147 -17 180 -20 33 -3 73 -7 90 -10 16 -3 53 -7 80 -10 28 -2
88 -9 135 -14 133 -17 130 -17 130 29 0 30 -12 58 -46 115 -26 41 -51 72 -57
68 -6 -4 -7 -1 -3 6 11 17 -40 91 -62 90 -9 -1 -53 -7 -97 -14z m95 -120 c0
-2 -10 -9 -22 -15 -22 -11 -22 -10 -4 4 21 17 26 19 26 11z m-157 -100 c-3 -9
-8 -14 -10 -11 -3 3 -2 9 2 15 9 16 15 13 8 -4z"/>
<path d="M19176 3191 c-37 -38 -64 -71 -60 -73 5 -3 3 -3 -4 -2 -6 2 -33 -16
-58 -39 -44 -40 -44 -42 -22 -48 13 -4 31 -7 42 -8 16 -1 17 1 5 17 -8 10 -4
9 11 -5 18 -15 63 -28 160 -47 74 -15 145 -29 158 -32 23 -5 23 -4 5 23 -10
15 -21 31 -26 34 -5 3 -8 9 -7 13 3 10 -101 200 -112 204 -4 2 -8 10 -8 18 0
24 -13 16 -84 -55z"/>
<path d="M17766 3203 c-3 -10 -14 -57 -24 -105 l-20 -87 62 -5 c33 -3 117 -8
186 -11 l125 -5 48 71 c27 39 45 75 40 79 -7 7 -374 80 -400 80 -6 0 -14 -8
-17 -17z"/>
<path d="M18198 3061 l-47 -68 46 -7 c89 -12 93 -10 93 32 0 68 -11 112 -29
112 -9 0 -37 -31 -63 -69z"/>
<path d="M2013 3051 c-54 -60 -74 -91 -59 -91 2 0 35 13 73 29 54 23 68 34 67
50 -2 61 -5 81 -11 81 -5 0 -36 -31 -70 -69z"/>
<path d="M18330 3087 c0 -18 3 -48 6 -68 l6 -37 102 -6 c55 -3 151 -8 212 -12
l111 -6 6 33 c2 19 4 35 2 37 -1 1 -94 20 -206 42 -112 22 -212 41 -221 44
-14 3 -18 -2 -18 -27z"/>
<path d="M201 3048 c-10 -25 -5 -41 10 -33 5 4 9 1 9 -5 0 -5 111 -99 248
-207 136 -108 288 -229 338 -270 50 -40 96 -73 102 -73 7 0 12 -4 12 -9 0 -9
205 -177 263 -215 l28 -19 51 54 c28 30 83 90 123 134 l73 80 21 199 c26 248
26 241 -1 243 -13 1 -34 5 -48 8 -19 4 -21 3 -10 -5 20 -13 4 -13 -22 1 -11 6
-91 19 -177 28 -136 15 -159 15 -181 3 -23 -13 -24 -13 -6 2 11 9 16 16 10 16
-13 0 -181 19 -231 25 -34 5 -42 3 -46 -12 -4 -16 -5 -16 -6 -1 -1 20 -5 21
-246 48 -312 34 -304 34 -314 8z m1285 -150 c4 -7 4 -10 -1 -6 -4 4 -14 3 -22
-4 -11 -8 -12 -7 -7 6 7 19 20 21 30 4z m-66 -72 c0 -2 -8 -10 -17 -17 -16
-13 -17 -12 -4 4 13 16 21 21 21 13z m-640 -20 c0 -2 -7 -7 -16 -10 -8 -3 -12
-2 -9 4 6 10 25 14 25 6z m677 -222 c-3 -3 -12 -4 -19 -1 -8 3 -5 6 6 6 11 1
17 -2 13 -5z m-262 -68 c-17 -12 -55 -11 -55 1 0 3 9 3 20 0 11 -3 23 -1 26 4
3 5 10 9 17 9 6 0 2 -6 -8 -14z m-85 -110 c0 -2 -8 -10 -17 -17 -16 -13 -17
-12 -4 4 13 16 21 21 21 13z"/>
<path d="M17287 2993 c-22 -21 5 -46 159 -142 91 -57 167 -101 170 -99 2 3 13
47 24 99 12 52 23 101 26 110 4 15 -12 18 -133 23 -76 3 -161 8 -189 11 -28 3
-54 2 -57 -2z"/>
<path d="M2034 2960 c-58 -26 -61 -30 -67 -70 -3 -23 -15 -52 -27 -65 -16 -18
-21 -31 -16 -49 8 -32 -19 -37 -29 -6 -4 13 -15 20 -32 20 l-26 0 24 -27 24
-28 -31 28 c-32 29 -53 24 -40 -9 3 -8 2 -13 -3 -10 -8 5 -31 -35 -31 -54 0
-16 61 -110 69 -106 4 3 7 -3 7 -12 0 -16 306 -524 311 -518 2 1 -42 119 -98
262 -55 142 -106 275 -114 296 -12 30 -12 38 -1 47 10 8 15 3 23 -22 28 -84
245 -633 255 -642 7 -7 9 -4 6 10 -3 11 -34 238 -69 503 -35 265 -66 482 -69
481 -3 0 -32 -13 -66 -29z"/>
<path d="M149 2973 c-1 -5 -1 -11 0 -15 0 -5 -2 -7 -6 -6 -5 1 -20 -2 -35 -6
-30 -9 -30 -6 -12 -122 3 -24 31 -54 132 -143 70 -62 161 -143 202 -181 109
-97 137 -120 149 -120 6 0 10 -4 9 -9 -2 -4 26 -34 62 -66 36 -32 99 -88 140
-125 41 -37 91 -80 110 -97 l34 -31 35 27 c19 14 32 21 28 15 -4 -7 4 -14 21
-17 15 -3 34 -7 42 -9 8 -2 39 22 68 53 l53 57 -143 113 c-78 63 -217 174
-308 247 -91 73 -171 130 -178 127 -7 -3 -10 -1 -7 5 3 5 -74 73 -170 150
-155 125 -178 140 -193 128 -15 -11 -15 -11 -5 3 7 9 10 19 6 22 -9 9 -33 9
-34 0z m22 -55 c6 -13 8 -20 4 -16 -5 4 -15 2 -24 -5 -14 -10 -14 -10 -3 5 8
9 11 22 7 28 -3 5 -4 10 -1 10 3 0 11 -10 17 -22z m-51 -78 c-6 -11 -13 -20
-16 -20 -2 0 0 9 6 20 6 11 13 20 16 20 2 0 0 -9 -6 -20z m300 -252 c-8 -7
-20 -19 -27 -26 -9 -11 -14 -9 -24 10 -10 20 -10 21 2 11 11 -9 19 -8 33 3 24
17 35 19 16 2z m337 -174 c-3 -3 -12 -4 -19 -1 -8 3 -5 6 6 6 11 1 17 -2 13
-5z m323 -269 c0 -2 -10 -9 -22 -15 -22 -11 -22 -10 -4 4 21 17 26 19 26 11z"/>
<path d="M17715 2968 c-8 -22 -56 -251 -53 -253 22 -16 152 -96 159 -98 5 -1
62 75 128 168 l119 170 -71 6 c-193 17 -278 19 -282 7z"/>
<path d="M19002 2949 c-1 -16 -3 -35 -5 -41 -1 -6 56 -44 127 -84 l129 -74
116 41 c64 23 118 43 119 45 2 1 -4 16 -14 32 -16 28 -24 31 -158 57 -78 14
-171 33 -208 41 -97 20 -103 19 -106 -17z m213 -59 c10 -11 16 -20 13 -20 -3
0 -13 9 -23 20 -10 11 -16 20 -13 20 3 0 13 -9 23 -20z m60 -70 c10 -11 16
-20 13 -20 -3 0 -13 9 -23 20 -10 11 -16 20 -13 20 3 0 13 -9 23 -20z"/>
<path d="M18090 2908 c-19 -29 -77 -112 -129 -186 -51 -74 -89 -137 -85 -142
5 -4 79 -51 164 -105 l155 -97 67 21 c37 12 69 25 72 29 3 6 -34 512 -38 518
-1 1 -39 5 -86 8 l-85 7 -35 -53z"/>
<path d="M18344 2919 c3 -19 13 -134 23 -256 l17 -221 116 40 c63 23 117 43
120 47 3 3 16 7 30 9 13 1 28 6 32 10 3 4 38 75 76 157 67 142 69 151 52 165
-10 8 -23 25 -29 36 -11 23 5 21 -329 40 l-113 7 5 -34z m396 -179 c-6 -11
-13 -20 -16 -20 -2 0 0 9 6 20 6 11 13 20 16 20 2 0 0 -9 -6 -20z m-70 -130
c-6 -11 -13 -20 -16 -20 -2 0 0 9 6 20 6 11 13 20 16 20 2 0 0 -9 -6 -20z"/>
<path d="M0 2907 c0 -13 12 -34 26 -48 l27 -24 -7 34 c-3 18 -6 40 -6 47 0 8
-9 14 -20 14 -14 0 -20 -7 -20 -23z"/>
<path d="M1544 2898 c-4 -14 -2 -24 6 -26 8 -3 9 -6 1 -11 -12 -8 -35 -200
-28 -237 2 -13 0 -24 -4 -24 -5 0 -9 -12 -9 -27 l0 -27 30 29 c16 15 27 32 24
37 -3 4 1 9 8 9 7 1 37 28 67 60 l53 58 -23 38 c-13 21 -27 40 -31 41 -4 2 -8
9 -8 16 0 19 -50 86 -65 86 -7 0 -17 -10 -21 -22z"/>
<path d="M17225 2908 c-4 -9 16 -73 44 -144 28 -71 50 -124 51 -118 0 18 -72
258 -81 268 -5 6 -11 3 -14 -6z"/>
<path d="M1676 2851 c39 -65 51 -72 78 -42 16 18 16 22 2 49 -19 38 -23 40
-75 48 l-42 7 37 -62z"/>
<path d="M17340 2747 c26 -89 67 -228 90 -309 36 -123 46 -148 62 -148 10 0
23 10 28 23 14 32 90 389 84 398 -3 6 -231 151 -300 192 -6 3 10 -67 36 -156z"/>
<path d="M17063 2745 l-61 -155 43 -38 c23 -20 112 -101 197 -179 144 -132
157 -141 171 -125 14 16 5 44 -103 324 -65 169 -121 312 -125 318 -3 5 -19 10
-34 10 -26 0 -30 -7 -88 -155z"/>
<path d="M18944 2860 c-5 -5 -27 -11 -48 -12 l-39 -3 -63 -135 c-34 -74 -61
-137 -59 -139 4 -3 464 157 473 164 5 5 -230 135 -242 135 -7 0 -16 -4 -22
-10z m83 -152 c-3 -7 -5 -2 -5 12 0 14 2 19 5 13 2 -7 2 -19 0 -25z"/>
<path d="M0 2751 c0 -71 3 -91 12 -85 10 6 11 4 1 -7 -17 -17 -17 -131 -1
-148 10 -11 10 -13 1 -7 -10 6 -13 -30 -13 -166 l-1 -173 73 -237 c39 -131 73
-236 75 -234 6 6 -31 381 -37 384 -4 1 -5 13 -3 26 3 13 0 80 -7 147 -6 68
-13 149 -16 179 -2 30 -9 105 -14 165 -6 61 -10 116 -10 124 0 11 -4 10 -16
-5 -15 -18 -15 -17 -1 7 19 32 12 71 -19 100 l-24 22 0 -92z"/>
<path d="M1761 2776 c-18 -19 -21 -28 -12 -43 10 -17 12 -14 15 20 1 6 8 17
16 24 8 6 12 14 9 17 -3 3 -16 -5 -28 -18z"/>
<path d="M19422 2761 c-40 -15 -70 -30 -66 -33 3 -4 -3 -4 -14 -1 -36 9 -31
-12 9 -34 22 -12 36 -16 33 -10 -4 7 4 2 17 -9 26 -23 145 -94 163 -97 6 -1
17 -8 24 -14 16 -16 39 -17 47 -3 6 10 -84 179 -113 213 -18 21 -12 22 -100
-12z"/>
<path d="M103 2700 c4 -30 9 -86 12 -125 9 -115 16 -156 24 -151 4 3 8 -1 8
-9 0 -8 -5 -11 -10 -8 -7 4 -8 -8 -4 -33 4 -21 7 -51 7 -66 0 -17 6 -28 18
-31 16 -4 16 -5 -1 -6 -14 -1 -16 -8 -12 -38 3 -21 14 -144 25 -273 26 -307
29 -332 43 -349 9 -12 9 -13 0 -7 -8 4 -13 1 -13 -8 0 -9 8 -16 18 -16 10 0
24 -6 30 -12 10 -10 17 -10 35 1 20 13 21 13 8 -3 -8 -9 -12 -18 -9 -21 2 -2
71 37 154 88 172 106 191 119 192 130 0 5 4 12 8 15 4 4 4 1 0 -5 -11 -20 2
-15 65 23 47 28 59 41 60 62 1 25 2 25 7 5 7 -22 8 -21 70 18 59 37 62 42 62
78 0 22 3 47 7 57 4 11 3 15 -4 11 -6 -4 -10 -1 -9 6 0 7 -69 75 -154 151
-280 250 -276 247 -266 226 4 -8 1 -6 -6 5 -25 38 -123 125 -136 120 -7 -3
-11 -1 -8 4 5 7 -85 94 -203 196 l-24 20 6 -55z m88 -327 c13 -16 12 -17 -3
-4 -10 7 -18 15 -18 17 0 8 8 3 21 -13z m309 -3 c8 -15 8 -20 -3 -20 -7 0 -13
9 -13 20 0 11 1 20 3 20 1 0 7 -9 13 -20z m-210 -72 c0 -6 -6 -5 -15 2 -8 7
-15 14 -15 16 0 2 7 1 15 -2 8 -4 15 -11 15 -16z m251 -195 c13 -16 12 -17 -3
-4 -10 7 -18 15 -18 17 0 8 8 3 21 -13z m-164 -79 c-3 -3 -12 -4 -19 -1 -8 3
-5 6 6 6 11 1 17 -2 13 -5z m130 -30 c-3 -3 -12 -4 -19 -1 -8 3 -5 6 6 6 11 1
17 -2 13 -5z m-107 -338 c0 -2 -8 -10 -17 -17 -16 -13 -17 -12 -4 4 13 16 21
21 21 13z"/>
<path d="M1601 2598 c-55 -61 -101 -119 -101 -127 0 -9 -7 -77 -14 -151 -22
-205 -12 -203 94 24 44 93 77 173 74 177 -3 5 -1 9 4 9 11 0 72 124 72 145 0
7 -6 18 -14 24 -10 9 -34 -12 -115 -101z"/>
<path d="M18971 2602 l-273 -97 -79 -170 c-62 -133 -76 -172 -67 -180 7 -7 57
-40 112 -74 96 -61 99 -62 118 -44 28 25 118 25 146 0 20 -18 24 -17 204 93
101 62 191 122 202 134 10 11 23 20 28 18 10 -3 201 110 227 134 13 12 12 17
-10 41 -13 15 -16 21 -6 14 15 -12 17 -11 19 8 0 11 1 26 2 32 1 6 -29 27 -66
47 -36 21 -108 61 -159 90 -51 28 -100 52 -108 52 -9 -1 -139 -45 -290 -98z
m76 -44 c-3 -7 -5 -2 -5 12 0 14 2 19 5 13 2 -7 2 -19 0 -25z m492 -23 c7 3 8
0 5 -9 -8 -22 -17 -20 -33 7 -13 20 -13 21 2 9 9 -8 21 -11 26 -7z m-482 -57
c-3 -7 -5 -2 -5 12 0 14 2 19 5 13 2 -7 2 -19 0 -25z m463 18 c0 -2 -8 -10
-17 -17 -16 -13 -17 -12 -4 4 13 16 21 21 21 13z m-30 -40 c0 -2 -8 -10 -17
-17 -16 -13 -17 -12 -4 4 13 16 21 21 21 13z m-413 -133 c-3 -10 -5 -4 -5 12
0 17 2 24 5 18 2 -7 2 -21 0 -30z m313 3 c0 -2 -8 -10 -17 -17 -16 -13 -17
-12 -4 4 13 16 21 21 21 13z m-293 -148 c-3 -8 -6 -5 -6 6 -1 11 2 17 5 13 3
-3 4 -12 1 -19z"/>
<path d="M19610 2690 c0 -5 7 -15 15 -24 9 -8 15 -18 15 -21 0 -3 8 -20 17
-38 l18 -32 3 44 c4 60 -3 78 -25 60 -9 -8 -14 -9 -10 -3 4 7 -2 14 -13 17
-11 3 -20 1 -20 -3z"/>
<path d="M19732 2691 c-10 -6 -11 -20 -5 -57 l8 -49 16 58 c16 57 12 68 -19
48z"/>
<path d="M17650 2677 c0 -1 -18 -86 -40 -187 -22 -101 -40 -188 -40 -192 0 -5
8 -8 18 -8 11 0 54 54 119 148 l102 147 -75 47 c-69 44 -84 53 -84 45z"/>
<path d="M19781 2639 c-13 -39 -14 -69 -2 -69 16 0 51 -66 51 -96 0 -16 -6
-41 -14 -55 -13 -26 -11 -30 83 -138 l96 -111 3 105 3 104 -102 145 c-55 81
-102 146 -104 146 -2 0 -8 -14 -14 -31z"/>
<path d="M1740 2614 c-5 -16 -15 -38 -22 -49 -20 -35 -188 -398 -188 -407 0
-4 12 -22 27 -38 24 -28 27 -28 40 -12 13 15 13 15 3 -6 -7 -13 -8 -41 -5 -67
l7 -44 112 -25 c61 -14 169 -38 239 -54 l128 -29 14 27 c8 15 26 36 40 46 l25
19 -34 55 c-18 30 -111 181 -205 334 -165 270 -171 278 -181 250z m61 -137
c-10 -9 -11 -8 -5 6 3 10 9 15 12 12 3 -3 0 -11 -7 -18z m-61 -115 c0 -5 -7
-17 -15 -28 -14 -18 -14 -17 -4 9 12 27 19 34 19 19z m-67 -127 c-3 -9 -8 -14
-10 -11 -3 3 -2 9 2 15 9 16 15 13 8 -4z"/>
<path d="M17827 2527 c-66 -90 -168 -238 -172 -249 -3 -8 9 -27 27 -44 l33
-31 215 78 c118 43 218 79 222 81 5 2 -62 47 -147 100 l-155 97 -23 -32z"/>
<path d="M16912 2363 c-39 -98 -141 -356 -227 -573 -86 -217 -211 -532 -277
-700 -67 -168 -158 -398 -204 -512 l-82 -208 44 -2 c24 0 48 -1 54 -2 5 -1
270 363 589 808 l579 809 -20 45 c-19 42 -20 77 -6 153 2 10 -66 79 -184 188
-103 94 -190 171 -192 171 -3 0 -36 -80 -74 -177z"/>
<path d="M18620 2476 c-14 -6 -31 -17 -38 -26 -10 -11 -12 -11 -6 -1 5 10 3
13 -7 9 -8 -3 -51 -18 -96 -34 -92 -32 -90 -29 -77 -128 7 -47 17 -58 102
-110 9 -5 32 34 82 140 39 81 69 150 68 154 -2 4 -14 2 -28 -4z m-119 -179
c-10 -9 -11 -8 -5 6 3 10 9 15 12 12 3 -3 0 -11 -7 -18z"/>
<path d="M1410 2387 c-19 -22 -28 -38 -20 -34 8 4 6 2 -4 -5 -26 -17 -145
-141 -146 -151 0 -4 12 -18 27 -31 26 -23 27 -23 57 -5 17 10 47 21 67 24 36
7 37 8 43 63 11 101 17 182 14 181 -2 0 -19 -19 -38 -42z"/>
<path d="M19445 2289 c-88 -55 -166 -107 -172 -116 -7 -9 -21 -17 -31 -18 -9
-1 -44 -19 -77 -40 -33 -22 -71 -45 -85 -53 -14 -7 -44 -25 -67 -40 -39 -25
-43 -31 -43 -69 0 -23 -2 -48 -5 -55 -3 -8 4 -27 16 -42 18 -23 23 -25 38 -14
14 11 14 11 3 -3 -10 -14 -6 -22 34 -54 25 -21 53 -45 62 -55 42 -41 302 -271
302 -266 0 3 21 -15 48 -42 44 -44 95 -90 276 -250 39 -34 71 -61 72 -59 0 1
-2 34 -6 72 -4 39 -11 116 -15 173 -5 77 -10 102 -20 98 -10 -3 -10 2 -3 22
13 37 -14 341 -32 352 -9 6 -9 9 0 12 9 3 8 45 -4 183 -23 262 -26 278 -44
300 -16 19 -16 19 1 6 15 -12 17 -11 17 3 0 9 -4 16 -10 16 -19 0 -25 2 -52
21 -14 10 -30 19 -35 18 -4 0 -80 -45 -168 -100z m135 47 c0 -2 -8 -10 -17
-17 -16 -13 -17 -12 -4 4 13 16 21 21 21 13z m-140 -110 c0 -2 -8 -10 -17 -17
-16 -13 -17 -12 -4 4 13 16 21 21 21 13z m-90 -70 c0 -2 -8 -10 -17 -17 -16
-13 -17 -12 -4 4 13 16 21 21 21 13z m-50 -40 c0 -2 -8 -10 -17 -17 -16 -13
-17 -12 -4 4 13 16 21 21 21 13z m-90 -30 c0 -2 -8 -10 -17 -17 -16 -13 -17
-12 -4 4 13 16 21 21 21 13z m40 -10 c0 -2 -8 -10 -17 -17 -16 -13 -17 -12 -4
4 13 16 21 21 21 13z m-70 -30 c0 -2 -8 -10 -17 -17 -16 -13 -17 -12 -4 4 13
16 21 21 21 13z m30 0 c0 -2 -8 -10 -17 -17 -16 -13 -17 -12 -4 4 13 16 21 21
21 13z m-46 -132 c3 -8 2 -12 -4 -9 -6 3 -10 10 -10 16 0 14 7 11 14 -7z m193
10 c-3 -3 -12 -4 -19 -1 -8 3 -5 6 6 6 11 1 17 -2 13 -5z m-136 -21 c13 -16
12 -17 -3 -4 -10 7 -18 15 -18 17 0 8 8 3 21 -13z m266 -9 c-3 -3 -12 -4 -19
-1 -8 3 -5 6 6 6 11 1 17 -2 13 -5z m-176 -61 c13 -16 12 -17 -3 -4 -10 7 -18
15 -18 17 0 8 8 3 21 -13z m396 11 c-3 -3 -12 -4 -19 -1 -8 3 -5 6 6 6 11 1
17 -2 13 -5z m-356 -41 c13 -16 12 -17 -3 -4 -10 7 -18 15 -18 17 0 8 8 3 21
-13z m134 -103 c10 -11 16 -20 13 -20 -3 0 -13 9 -23 20 -10 11 -16 20 -13 20
3 0 13 -9 23 -20z m154 -117 c2 -2 -2 -3 -10 -3 -8 0 -20 10 -28 23 l-14 22
24 -20 c13 -11 26 -21 28 -22z m-222 -50 c-12 -3 -16 -11 -13 -21 5 -15 4 -15
-7 0 -8 10 -18 14 -22 10 -5 -4 -6 -2 -2 3 3 6 18 11 34 12 15 0 20 -1 10 -4z
m334 -40 c13 -16 12 -17 -3 -4 -10 7 -18 15 -18 17 0 8 8 3 21 -13z m-101
-108 c0 -2 -10 -9 -22 -15 -22 -11 -22 -10 -4 4 21 17 26 19 26 11z"/>
<path d="M18291 2360 l-43 -17 51 -31 51 -32 0 38 c0 55 -8 61 -59 42z"/>
<path d="M19768 2365 c-11 -11 46 -171 71 -200 21 -24 21 -26 4 -11 l-23 19
15 -49 c9 -27 34 -112 58 -188 33 -110 46 -140 61 -144 16 -4 17 -6 4 -11 -13
-5 -12 -17 12 -91 l27 -85 1 257 2 256 -110 126 c-115 131 -113 129 -122 121z
m127 -265 c10 -11 16 -20 13 -20 -3 0 -13 9 -23 20 -10 11 -16 20 -13 20 3 0
13 -9 23 -20z m65 -75 c13 -14 21 -25 18 -25 -2 0 -15 11 -28 25 -13 14 -21
25 -18 25 2 0 15 -11 28 -25z"/>
<path d="M17965 2245 l-230 -83 0 -43 0 -44 55 -12 c30 -7 143 -32 250 -56
l195 -45 23 39 c13 21 42 50 66 64 43 25 43 26 39 73 -9 106 -8 104 -82 150
-38 23 -73 41 -77 41 -5 -1 -112 -39 -239 -84z"/>
<path d="M19766 2200 c6 -67 23 -258 35 -410 8 -102 15 -138 27 -147 11 -9 12
-13 3 -13 -13 0 -11 -76 4 -215 2 -16 6 -64 10 -105 11 -142 16 -170 28 -163
7 4 6 -1 -2 -10 -22 -28 -6 -72 45 -119 93 -85 84 -106 84 199 l-1 268 -109
355 c-124 406 -131 425 -124 360z m71 -386 c-3 -3 -12 -4 -19 -1 -8 3 -5 6 6
6 11 1 17 -2 13 -5z m44 -421 c13 -16 12 -17 -3 -4 -10 7 -18 15 -18 17 0 8 8
3 21 -13z m40 -30 c13 -16 12 -17 -3 -4 -10 7 -18 15 -18 17 0 8 8 3 21 -13z
m58 -45 c-5 -10 -13 -18 -16 -18 -3 0 -3 3 0 7 4 3 3 11 -3 17 -6 8 -3 12 10
12 15 0 16 -4 9 -18z"/>
<path d="M18404 2183 c4 -16 7 -43 6 -60 -1 -30 2 -33 29 -33 23 0 34 7 45 29
15 28 14 30 -9 45 -13 9 -29 16 -35 16 -5 0 -10 4 -10 9 0 5 -7 12 -16 15 -14
5 -15 1 -10 -21z"/>
<path d="M1150 2104 c-41 -45 -50 -62 -44 -78 4 -12 8 -41 8 -66 l2 -44 99
-63 c90 -57 101 -61 113 -46 18 24 15 41 -9 48 -11 4 -34 28 -50 53 -33 52
-39 127 -15 174 12 23 12 28 -2 40 -50 41 -46 42 -102 -18z"/>
<path d="M18509 2104 c-5 -15 -8 -28 -7 -29 51 -34 70 -53 87 -88 24 -50 27
-113 7 -162 -15 -34 -14 -35 17 -59 l32 -25 38 37 c59 57 82 91 68 105 -6 6
-11 34 -11 62 l0 51 -105 67 c-57 37 -107 67 -110 67 -3 0 -10 -12 -16 -26z"/>
<path d="M1 1881 l-1 -163 68 -78 c37 -43 70 -75 74 -72 10 11 -36 159 -58
183 -10 12 -13 19 -6 15 16 -9 13 3 -38 161 l-38 118 -1 -164z m30 -58 c13
-16 12 -17 -3 -4 -10 7 -18 15 -18 17 0 8 8 3 21 -13z"/>
<path d="M17680 1981 l-45 -49 174 -285 c96 -157 179 -283 184 -280 6 3 7 1 3
-5 -9 -16 42 -95 56 -86 7 4 8 3 4 -4 -4 -7 -3 -19 2 -29 8 -14 11 -13 18 8 5
13 9 29 9 34 0 6 6 17 13 25 8 8 58 110 111 225 l99 210 -26 25 c-30 30 -52
79 -52 118 l0 28 -232 53 c-128 29 -242 54 -253 57 -14 3 -33 -11 -65 -45z
m553 -186 c-3 -9 -8 -14 -10 -11 -3 3 -2 9 2 15 9 16 15 13 8 -4z m-92 -168
c-10 -9 -11 -8 -5 6 3 10 9 15 12 12 3 -3 0 -11 -7 -18z m-80 -150 c-10 -9
-11 -8 -5 6 3 10 9 15 12 12 3 -3 0 -11 -7 -18z"/>
<path d="M1576 1922 c-15 -28 -53 -65 -91 -87 -15 -9 -17 -20 -10 -81 l7 -69
68 -43 68 -42 153 55 c85 31 187 67 227 81 l72 26 0 38 c0 46 24 36 -240 95
-113 25 -213 48 -222 51 -12 3 -22 -4 -32 -24z"/>
<path d="M16845 1145 l-577 -807 28 -29 c15 -16 32 -29 38 -29 12 0 1298 549
1308 559 3 3 -13 152 -37 331 -46 341 -82 612 -92 693 -5 43 -10 50 -42 64
-20 10 -39 19 -43 20 -3 2 -266 -359 -583 -802z"/>
<path d="M17554 1883 c3 -16 36 -251 72 -523 36 -272 67 -496 68 -498 2 -1 34
11 72 27 56 24 69 34 70 53 1 48 5 57 30 87 19 23 24 38 20 56 -8 31 19 36 29
5 4 -13 15 -20 32 -20 23 0 24 2 12 18 -12 15 -11 15 8 -1 21 -18 22 -18 32 1
6 11 7 22 4 26 -3 3 -2 6 4 6 13 0 37 56 29 68 -3 6 -14 9 -24 7 -9 -1 -11 0
-4 2 6 3 12 7 12 10 0 6 -306 510 -363 598 -21 33 -37 53 -34 45 3 -8 58 -151
122 -317 76 -196 115 -309 110 -320 -6 -16 -8 -15 -19 7 -7 14 -71 175 -141
358 -71 182 -132 332 -137 332 -5 0 -7 -12 -4 -27z"/>
<path d="M731 1781 c-96 -60 -178 -116 -183 -125 -5 -9 -14 -14 -19 -11 -7 5
-201 -107 -228 -131 -3 -3 11 -21 30 -42 22 -24 25 -28 7 -13 l-28 24 0 -31
c0 -37 33 -63 48 -37 7 14 11 13 28 -7 15 -18 16 -20 1 -9 -9 8 -21 11 -25 7
-9 -10 29 -38 44 -32 7 3 15 -1 17 -8 4 -11 143 -94 190 -115 5 -2 55 14 113
34 74 27 104 42 104 54 0 12 2 13 8 3 7 -10 44 0 162 40 l153 53 69 145 c38
79 71 153 74 165 4 16 -13 31 -95 83 -54 34 -103 62 -109 62 -5 0 -15 -7 -22
-15 -16 -20 -100 -20 -126 0 -10 8 -23 14 -29 14 -5 0 -88 -49 -184 -108z m46
-13 c-3 -7 -5 -2 -5 12 0 14 2 19 5 13 2 -7 2 -19 0 -25z m20 -150 c-3 -7 -5
-2 -5 12 0 14 2 19 5 13 2 -7 2 -19 0 -25z m-267 8 c0 -2 -8 -10 -17 -17 -16
-13 -17 -12 -4 4 13 16 21 21 21 13z m-30 -40 c0 -2 -8 -10 -17 -17 -16 -13
-17 -12 -4 4 13 16 21 21 21 13z m307 -48 c-3 -7 -5 -2 -5 12 0 14 2 19 5 13
2 -7 2 -19 0 -25z"/>
<path d="M18905 1830 c-28 -17 -33 -17 -75 -3 l-45 15 -53 -58 c-48 -53 -61
-83 -33 -77 6 2 10 -1 9 -6 -2 -4 33 -37 77 -73 204 -165 536 -428 542 -428 3
0 11 -6 17 -14 18 -22 365 -296 375 -296 5 0 12 -7 15 -16 5 -13 11 -11 39 10
19 14 40 26 47 26 11 0 10 64 -2 141 -5 25 -268 254 -289 252 -11 -2 -19 2
-19 8 0 5 6 7 13 3 38 -23 -245 235 -568 517 -19 17 -22 17 -50 -1z m75 -54
c0 -2 -8 -10 -17 -17 -16 -13 -17 -12 -4 4 13 16 21 21 21 13z m-30 -40 c0 -2
-8 -10 -17 -17 -16 -13 -17 -12 -4 4 13 16 21 21 21 13z m-50 -70 c0 -2 -8
-10 -17 -17 -16 -13 -17 -12 -4 4 13 16 21 21 21 13z m197 -212 c-3 -3 -12 -4
-19 -1 -8 3 -5 6 6 6 11 1 17 -2 13 -5z m553 -354 c6 -11 8 -20 6 -20 -3 0
-10 9 -16 20 -6 11 -8 20 -6 20 3 0 10 -9 16 -20z m110 -155 c-6 -8 -8 -20 -4
-27 5 -10 4 -10 -6 -1 -11 10 -11 15 0 28 7 8 15 15 17 15 3 0 0 -7 -7 -15z"/>
<path d="M1360 1805 c-5 -14 -10 -30 -10 -35 0 -9 40 -25 53 -22 5 1 6 -2 3
-7 -3 -5 1 -12 9 -15 13 -5 15 3 13 47 -3 49 -5 52 -30 55 -22 3 -30 -2 -38
-23z"/>
<path d="M18500 1729 c-19 -11 -47 -19 -62 -19 -30 0 -32 -6 -43 -135 -3 -38
-8 -83 -11 -100 l-6 -30 36 37 c36 36 47 56 24 42 -7 -5 -8 -3 -4 5 5 7 10 10
13 7 7 -7 47 31 111 103 l56 64 -28 23 c-32 28 -39 28 -86 3z"/>
<path d="M1270 1615 c-79 -168 -79 -166 -40 -152 16 6 30 15 30 20 0 4 4 6 9
3 4 -3 47 9 95 26 87 31 88 32 82 61 -3 16 -6 47 -6 68 0 33 -4 41 -27 52 -16
6 -37 20 -47 29 -11 10 -24 18 -28 18 -5 0 -35 -56 -68 -125z"/>
<path d="M18298 1652 c-20 -42 -75 -162 -123 -265 -79 -171 -86 -191 -75 -215
l11 -26 34 39 c22 27 29 42 22 47 -8 5 -4 8 8 8 30 0 151 137 157 178 4 27 2
32 -11 27 -14 -4 -14 -3 1 8 12 9 19 42 27 122 14 137 14 142 -3 148 -9 4 -24
-19 -48 -71z"/>
<path d="M1873 1647 c-112 -40 -203 -74 -203 -77 0 -3 64 -45 141 -93 117 -73
144 -86 154 -75 7 7 51 67 97 134 l85 120 -28 32 c-16 18 -32 32 -36 31 -5 0
-99 -33 -210 -72z"/>
<path d="M2367 1677 c-14 -11 -2 -46 99 -307 63 -162 117 -296 118 -298 2 -1
16 -4 30 -5 26 -2 30 4 82 138 31 77 56 142 57 146 2 5 -338 319 -360 332 -5
4 -17 1 -26 -6z"/>
<path d="M18620 1665 c-7 -8 -11 -15 -8 -15 2 0 -45 -51 -104 -112 -59 -62
-114 -126 -122 -143 -7 -16 -21 -109 -31 -205 -9 -96 -19 -197 -22 -224 -4
-45 -3 -49 11 -37 9 7 14 16 12 20 -3 4 5 13 17 21 20 12 21 12 8 -3 -7 -10
-10 -17 -5 -17 4 0 -1 -7 -12 -15 -18 -14 -18 -14 11 -16 39 -2 58 -4 255 -27
116 -14 169 -17 178 -10 7 6 15 8 19 4 3 -3 0 -6 -7 -6 -7 0 -11 -2 -8 -5 3
-3 142 -21 309 -40 167 -19 348 -39 402 -46 53 -6 109 -9 122 -7 14 3 25 1 25
-3 0 -19 28 -7 38 16 15 32 15 35 1 35 -7 0 -17 6 -23 14 -6 8 -96 83 -201
165 -104 83 -197 157 -205 164 -39 35 -310 247 -316 247 -4 0 -12 7 -18 14
-14 18 -299 246 -307 246 -4 0 -12 -7 -19 -15z m267 -261 c-3 -3 -12 -4 -19
-1 -8 3 -5 6 6 6 11 1 17 -2 13 -5z m-207 -48 c0 -2 -7 -7 -16 -10 -8 -3 -12
-2 -9 4 6 10 25 14 25 6z m-123 -32 c-3 -3 -12 -4 -19 -1 -8 3 -5 6 6 6 11 1
17 -2 13 -5z m33 -78 c0 -2 -8 -10 -17 -17 -16 -13 -17 -12 -4 4 13 16 21 21
21 13z m-30 -40 c0 -2 -8 -10 -17 -17 -16 -13 -17 -12 -4 4 13 16 21 21 21 13z
m-30 -40 c0 -2 -8 -10 -17 -17 -16 -13 -17 -12 -4 4 13 16 21 21 21 13z m-50
-70 c0 -2 -8 -10 -17 -17 -16 -13 -17 -12 -4 4 13 16 21 21 21 13z m637 -178
c-2 -29 -3 -6 -3 52 0 58 1 81 3 53 2 -29 2 -77 0 -105z"/>
<path d="M0 1558 l1 -113 59 -84 c37 -53 61 -79 64 -70 3 8 10 27 16 43 10 26
7 31 -21 57 -28 25 -31 32 -27 76 3 26 8 55 11 63 5 10 -11 36 -48 78 l-55 63
0 -113z m80 -152 c0 -2 -8 -10 -17 -17 -16 -13 -17 -12 -4 4 13 16 21 21 21
13z"/>
<path d="M1486 1609 c4 -24 8 -46 10 -47 4 -5 74 21 74 28 0 3 -10 11 -22 19
-13 8 -33 21 -46 29 -23 15 -23 15 -16 -29z"/>
<path d="M2095 1508 c-49 -72 -91 -136 -92 -142 -3 -12 123 -93 135 -87 6 3
81 320 82 349 0 6 -8 12 -17 12 -12 -1 -51 -49 -108 -132z"/>
<path d="M2274 1632 c-8 -5 -84 -331 -88 -379 -1 -11 283 -198 290 -191 1 2
-24 96 -57 208 -33 113 -70 241 -83 285 -22 76 -37 95 -62 77z"/>
<path d="M1560 1535 l-65 -22 3 -49 c2 -27 11 -139 20 -249 l17 -200 80 -3 81
-3 116 168 c65 92 118 173 119 178 1 8 -146 108 -271 182 l-35 21 -65 -23z"/>
<path d="M1375 1470 c-27 -11 -85 -32 -128 -47 l-79 -26 -45 -96 c-88 -186
-94 -201 -79 -201 7 0 19 -14 26 -30 7 -17 22 -32 34 -35 11 -2 103 -7 204
-10 133 -5 182 -3 182 5 0 22 -30 376 -36 418 -6 48 -10 49 -79 22z m-164 -93
c-10 -9 -11 -8 -5 6 3 10 9 15 12 12 3 -3 0 -11 -7 -18z m-70 -130 c-10 -9
-11 -8 -5 6 3 10 9 15 12 12 3 -3 0 -11 -7 -18z m-58 -112 c-3 -9 -8 -14 -10
-11 -3 3 -2 9 2 15 9 16 15 13 8 -4z"/>
<path d="M274 1387 c-4 -13 69 -160 101 -201 14 -19 16 -19 97 9 114 39 113
37 65 64 l-42 24 20 -25 c11 -13 7 -10 -10 7 -37 39 -162 108 -178 99 -7 -4
-9 -4 -5 1 4 4 0 14 -10 21 -22 17 -31 17 -38 1z"/>
<path d="M897 1300 c-120 -42 -220 -79 -222 -81 -2 -2 47 -32 110 -67 l112
-62 36 15 c20 8 45 15 55 15 14 0 34 32 80 130 33 72 58 130 54 129 -4 0 -105
-36 -225 -79z m-50 -72 c-3 -8 -6 -5 -6 6 -1 11 2 17 5 13 3 -3 4 -12 1 -19z"/>
<path d="M1 1203 c0 -110 3 -161 12 -172 9 -12 9 -13 0 -7 -10 5 -13 -8 -12
-56 1 -35 3 -54 6 -43 2 11 8 29 12 40 21 52 31 95 31 136 0 31 8 56 26 83
l26 38 -47 69 c-26 38 -48 69 -50 69 -2 0 -4 -71 -4 -157z"/>
<path d="M226 1318 c8 -55 17 -64 33 -34 11 20 10 28 -4 50 -25 38 -36 32 -29
-16z"/>
<path d="M158 1301 l-16 -52 21 7 c30 9 30 7 20 55 l-8 42 -17 -52z"/>
<path d="M1862 1173 c-68 -99 -105 -160 -98 -164 6 -4 80 -9 164 -12 l152 -5
7 27 c4 14 16 69 28 121 l21 95 -74 48 c-40 26 -77 47 -82 47 -4 0 -57 -71
-118 -157z"/>
<path d="M2762 1289 c-10 -24 -36 -87 -56 -140 l-37 -97 20 -33 c37 -60 23
-127 -33 -160 -29 -17 -35 -26 -38 -63 -4 -52 21 -146 42 -157 8 -4 110 -26
225 -48 323 -61 787 -151 812 -156 15 -4 23 1 28 14 6 21 1 26 -225 231 -69
63 -165 150 -215 195 -49 45 -171 155 -270 245 -99 89 -192 174 -207 188 l-27
25 -19 -44z"/>
<path d="M18290 1298 c-14 -18 -24 -36 -22 -40 1 -5 -4 -8 -11 -8 -7 0 -39
-29 -70 -64 l-56 -63 32 -52 c18 -28 37 -48 42 -44 4 4 5 2 1 -5 -10 -17 39
-92 59 -92 8 0 17 10 19 23 9 38 38 356 34 367 -2 6 -14 -4 -28 -22z"/>
<path d="M267 1283 c-12 -11 -8 -21 13 -26 17 -4 18 -2 9 14 -11 21 -13 22
-22 12z"/>
<path d="M2466 1266 c24 -96 63 -211 73 -214 19 -6 13 19 -30 128 -42 108 -56
136 -43 86z"/>
<path d="M2152 1107 c-12 -57 -22 -106 -22 -109 0 -4 53 -9 118 -12 64 -3 145
-9 178 -11 55 -5 62 -3 67 14 4 17 -22 37 -151 118 -85 54 -158 99 -162 101
-4 1 -16 -44 -28 -101z"/>
<path d="M592 1193 c-10 -4 -10 -8 0 -21 12 -15 11 -16 -4 -4 -15 12 -29 10
-98 -13 -44 -15 -80 -30 -80 -33 1 -4 7 -18 14 -31 13 -23 32 -29 202 -62 232
-46 244 -47 244 -15 0 13 2 31 5 38 4 9 -33 35 -115 81 -115 64 -138 72 -168
60z m53 -83 c10 -11 16 -20 13 -20 -3 0 -13 9 -23 20 -10 11 -16 20 -13 20 3
0 13 -9 23 -20z m66 -77 c13 -16 12 -17 -3 -4 -10 7 -18 15 -18 17 0 8 8 3 21
-13z"/>
<path d="M18051 1121 c-10 -17 -9 -21 3 -21 20 0 27 13 16 29 -6 11 -10 9 -19
-8z"/>
<path d="M18026 1075 c-3 -8 -1 -15 3 -15 5 0 11 7 15 15 3 8 1 15 -3 15 -5 0
-11 -7 -15 -15z"/>
<path d="M18066 1051 c-16 -18 -16 -21 1 -57 16 -34 24 -39 62 -46 25 -4 47
-6 49 -3 8 7 -69 125 -82 125 -7 0 -21 -9 -30 -19z"/>
<path d="M386 1001 c-9 -16 -29 -40 -46 -54 l-30 -26 29 -78 c16 -43 35 -91
42 -108 7 -16 13 -32 13 -35 7 -29 52 -140 57 -140 12 0 149 132 149 143 0 22
-154 286 -163 280 -6 -3 -7 -1 -3 6 8 12 -10 41 -25 41 -5 0 -15 -13 -23 -29z
m121 -277 c-3 -3 -12 -4 -19 -1 -8 3 -5 6 6 6 11 1 17 -2 13 -5z m-50 -10 c-3
-3 -12 -4 -19 -1 -8 3 -5 6 6 6 11 1 17 -2 13 -5z"/>
<path d="M482 985 c6 -14 18 -25 27 -26 9 0 11 -3 5 -5 -7 -3 11 -46 48 -112
33 -59 61 -109 63 -111 2 -2 12 0 22 4 17 7 17 8 -2 15 -18 8 -18 9 5 10 16 0
50 25 97 69 58 55 69 71 60 82 -10 11 -9 11 4 1 13 -10 19 -8 34 8 10 11 16
20 13 20 -3 0 -85 16 -181 35 -214 43 -210 43 -195 10z"/>
<path d="M1086 977 c-3 -17 -5 -32 -3 -34 2 -1 86 -19 188 -39 101 -19 194
-38 207 -41 20 -5 22 -2 22 38 0 90 7 86 -158 93 -81 4 -170 8 -199 9 -50 3
-51 3 -57 -26z"/>
<path d="M19870 997 c0 -8 3 -29 6 -46 5 -24 12 -31 31 -31 13 0 39 -7 58 -14
19 -8 35 -13 35 -11 0 6 -99 99 -116 108 -9 5 -14 3 -14 -6z"/>
<path d="M31 900 c-28 -89 -31 -111 -30 -212 l1 -113 44 110 c80 198 96 248
79 241 -9 -3 -13 -2 -10 3 6 10 -12 25 -30 26 -5 0 -9 8 -7 17 1 9 -2 19 -6
22 -5 3 -24 -39 -41 -94z"/>
<path d="M1540 952 c0 -64 11 -102 29 -102 13 0 106 119 98 126 -1 1 -30 4
-64 8 l-63 7 0 -39z"/>
<path d="M1703 942 c-15 -20 -38 -52 -51 -70 -13 -18 -22 -35 -21 -36 12 -10
393 -76 399 -69 7 8 40 157 40 180 0 13 -57 20 -223 27 l-117 4 -27 -36z"/>
<path d="M2117 944 c-3 -10 -13 -57 -23 -102 -13 -66 -15 -85 -5 -91 13 -9
292 -64 296 -59 1 2 32 41 69 87 37 46 65 87 63 90 -2 3 -11 23 -20 44 l-17
37 -74 0 c-40 0 -120 3 -178 6 -98 6 -106 6 -111 -12z"/>
<path d="M855 888 c-22 -21 -57 -53 -78 -69 -20 -17 -35 -35 -31 -40 3 -5 -1
-9 -8 -9 -8 0 -31 -18 -52 -39 l-39 -40 48 -88 c59 -110 70 -125 80 -115 5 4
5 1 1 -5 -6 -11 88 -196 136 -265 22 -31 23 -48 4 -48 -8 0 -74 108 -151 248
-76 136 -139 249 -142 252 -2 3 -33 -24 -67 -60 -35 -36 -67 -65 -71 -65 -4 0
-12 -7 -17 -15 -10 -18 144 -434 157 -423 4 5 5 3 2 -3 -4 -6 0 -32 9 -58 l16
-46 169 1 c93 0 169 2 169 5 0 3 -7 18 -15 35 -22 41 -8 58 20 24 l22 -28 64
93 c35 51 63 100 61 109 -2 9 -25 113 -52 231 -27 118 -59 261 -71 318 -23
103 -23 104 -51 100 -15 -3 -28 -1 -28 3 0 3 -10 13 -22 21 -22 14 -25 13 -63
-24z m52 -230 c-2 -18 -4 -4 -4 32 0 36 2 50 4 33 2 -18 2 -48 0 -65z m10
-240 c-2 -13 -4 -3 -4 22 0 25 2 35 4 23 2 -13 2 -33 0 -45z"/>
<path d="M18052 889 l-20 -32 58 -91 c32 -50 63 -90 70 -88 6 1 9 -2 5 -8 -7
-12 64 -134 73 -125 12 11 28 205 18 215 -7 7 -6 10 2 10 7 0 12 9 12 21 0 13
-4 18 -12 13 -7 -4 -8 -3 -4 5 11 18 -45 101 -69 102 -11 0 -41 3 -66 5 -43 5
-48 3 -67 -27z m133 -39 c21 -22 37 -40 34 -40 -3 0 -23 18 -44 40 -21 22 -37
40 -34 40 3 0 23 -18 44 -40z m65 -64 c0 -2 -8 -10 -17 -17 -16 -13 -17 -12
-4 4 13 16 21 21 21 13z m-30 -40 c0 -2 -8 -10 -17 -17 -16 -13 -17 -12 -4 4
13 16 21 21 21 13z"/>
<path d="M131 780 c-43 -110 -47 -126 -33 -132 14 -5 14 -7 -3 -7 -16 -1 -28
-21 -58 -98 -33 -86 -37 -108 -37 -182 0 -78 2 -87 28 -115 l27 -31 -28 24
-27 24 0 -62 0 -62 23 18 c13 10 69 61 125 113 70 66 97 97 89 103 -8 6 -7 7
3 4 9 -3 47 25 94 68 l80 72 -23 64 c-13 35 -29 78 -36 94 -7 17 -29 75 -49
130 l-37 100 -45 0 -45 0 -48 -125z m176 -96 c-3 -3 -12 -4 -19 -1 -8 3 -5 6
6 6 11 1 17 -2 13 -5z"/>
<path d="M1027 902 c-4 -5 103 -483 137 -615 7 -28 11 -24 96 99 50 71 90 132
90 137 0 14 -288 374 -304 380 -9 4 -17 3 -19 -1z"/>
<path d="M1116 878 c9 -15 231 -297 248 -316 9 -10 27 9 80 87 55 81 67 105
64 132 l-3 33 -190 38 c-219 43 -208 42 -199 26z"/>
<path d="M17773 859 c-49 -21 -73 -36 -73 -47 0 -36 13 -93 20 -90 13 5 140
150 140 159 0 13 -8 11 -87 -22z"/>
<path d="M18320 851 c0 -31 11 -58 48 -117 26 -42 58 -96 72 -120 14 -24 30
-48 36 -54 8 -8 250 23 584 75 19 4 53 8 75 11 22 3 126 18 230 34 105 15 215
31 245 35 68 9 114 27 58 22 -21 -2 -39 0 -40 4 -2 3 -151 23 -333 44 -181 20
-376 42 -433 49 -62 7 -109 8 -119 3 -10 -6 -14 -6 -9 1 4 7 -18 13 -61 17
-38 4 -76 9 -87 12 -11 3 -16 1 -12 -5 3 -5 -11 -4 -32 3 -20 7 -79 16 -129
20 l-93 7 0 -41z m387 -44 c0 -7 -9 -13 -19 -13 -18 0 -18 1 -2 13 10 7 18 13
19 13 1 0 2 -6 2 -13z"/>
<path d="M17800 760 l-82 -90 15 -111 c8 -61 17 -112 18 -113 2 -2 55 4 117
13 l112 16 0 30 c0 16 -7 93 -15 170 -8 77 -15 143 -15 147 0 5 -54 28 -65 28
-1 0 -39 -41 -85 -90z m107 -87 c-3 -10 -5 -4 -5 12 0 17 2 24 5 18 2 -7 2
-21 0 -30z m0 -150 c-2 -21 -4 -4 -4 37 0 41 2 58 4 38 2 -21 2 -55 0 -75z"/>
<path d="M2482 767 c-34 -41 -62 -77 -62 -80 0 -2 28 -10 63 -16 34 -7 70 -14
80 -17 23 -7 23 40 -1 125 l-18 64 -62 -76z"/>
<path d="M17983 798 c3 -24 11 -104 18 -179 10 -115 15 -136 28 -134 9 2 48 6
87 10 101 10 103 12 59 79 -33 48 -40 54 -54 44 -14 -12 -14 -11 -2 4 12 16 6
30 -49 118 -69 110 -96 128 -87 58z"/>
<path d="M1579 766 c-22 -29 -22 -32 -10 -162 6 -73 14 -174 17 -226 4 -51 12
-102 18 -114 20 -37 201 -263 211 -264 6 0 23 16 39 36 26 32 37 74 98 356 39
176 68 321 66 322 -1 2 -96 21 -210 43 l-207 39 -22 -30z"/>
<path d="M17005 530 c-346 -148 -639 -274 -650 -280 -33 -17 75 -4 592 73
l482 72 121 135 121 134 -6 61 c-8 62 -11 75 -23 75 -4 0 -290 -122 -637 -270z"/>
<path d="M18306 699 c-12 -82 -13 -129 -2 -122 6 3 6 0 -1 -8 -7 -7 -13 -21
-13 -32 0 -15 5 -18 28 -13 15 3 46 8 70 11 l43 7 -17 26 c-9 15 -23 33 -32
40 -9 6 -12 12 -7 12 4 0 0 9 -10 20 -11 12 -20 27 -21 35 -1 8 -9 24 -17 36
-15 21 -16 21 -21 -12z"/>
<path d="M2006 434 c-32 -146 -56 -267 -54 -269 2 -2 90 104 197 237 106 132
189 243 185 248 -9 7 -225 50 -256 50 -11 0 -28 -63 -72 -266z"/>
<path d="M19580 660 c-47 -9 -98 -15 -115 -13 -24 4 -27 2 -15 -6 12 -9 10
-10 -10 -6 -14 3 -84 -3 -155 -15 -72 -11 -148 -22 -170 -25 -22 -2 -163 -22
-313 -45 -151 -22 -278 -40 -283 -40 -14 0 -11 -18 9 -38 9 -11 33 -36 52 -58
30 -33 31 -35 6 -14 l-30 25 22 -35 c13 -19 35 -56 50 -82 15 -27 33 -48 40
-48 7 0 10 -5 7 -10 -3 -6 27 -64 67 -130 l73 -120 63 0 c48 0 61 3 56 13 -6
9 -4 9 7 0 9 -10 62 -13 191 -13 l178 0 60 83 c33 45 63 87 68 92 51 62 150
210 145 218 -3 5 -2 7 4 4 10 -6 153 182 153 201 0 23 -43 82 -58 81 -10 -1
-55 -9 -102 -19z m-173 -36 c-3 -3 -12 -4 -19 -1 -8 3 -5 6 6 6 11 1 17 -2 13
-5z m-100 -20 c-3 -3 -12 -4 -19 -1 -8 3 -5 6 6 6 11 1 17 -2 13 -5z m243 -24
c-6 -11 -13 -20 -16 -20 -2 0 0 9 6 20 6 11 13 20 16 20 2 0 0 -9 -6 -20z
m-385 0 c-3 -5 -18 -9 -33 -9 l-27 1 30 8 c17 4 31 8 33 9 2 0 0 -3 -3 -9z
m35 0 c0 -5 -4 -10 -10 -10 -5 0 -10 5 -10 10 0 6 5 10 10 10 6 0 10 -4 10
-10z m-203 -36 c-3 -3 -12 -4 -19 -1 -8 3 -5 6 6 6 11 1 17 -2 13 -5z m-100
-20 c-3 -3 -12 -4 -19 -1 -8 3 -5 6 6 6 11 1 17 -2 13 -5z m448 -22 c-3 -3
-11 0 -18 7 -9 10 -8 11 6 5 10 -3 15 -9 12 -12z m-548 2 c-3 -3 -12 -4 -19
-1 -8 3 -5 6 6 6 11 1 17 -2 13 -5z m-150 -30 c-3 -3 -12 -4 -19 -1 -8 3 -5 6
6 6 11 1 17 -2 13 -5z m828 -32 c-3 -3 -11 0 -18 7 -9 10 -8 11 6 5 10 -3 15
-9 12 -12z m-805 -127 c19 -19 32 -35 29 -35 -3 0 -20 16 -39 35 -19 19 -32
35 -29 35 3 0 20 -16 39 -35z m96 -72 l-28 -5 28 -31 29 -32 -32 29 c-18 17
-33 33 -33 38 0 4 15 7 33 7 31 -2 31 -2 3 -6z m127 -10 c-7 -2 -21 -2 -30 0
-10 3 -4 5 12 5 17 0 24 -2 18 -5z m180 -20 c-7 -2 -21 -2 -30 0 -10 3 -4 5
12 5 17 0 24 -2 18 -5z m184 -19 c-3 -3 -12 -4 -19 -1 -8 3 -5 6 6 6 11 1 17
-2 13 -5z m111 -11 c-10 -2 -28 -2 -40 0 -13 2 -5 4 17 4 22 1 32 -1 23 -4z
m-492 -95 l29 -33 -32 29 c-31 28 -38 36 -30 36 2 0 16 -15 33 -32z"/>
<path d="M1462 598 c-28 -40 -51 -77 -52 -83 -1 -12 122 -174 132 -174 4 -1 5
11 3 27 -3 15 -10 88 -15 162 -6 74 -13 136 -14 138 -2 2 -27 -30 -54 -70z"/>
<path d="M2155 365 c-120 -151 -222 -282 -226 -292 -3 -10 -9 -30 -13 -45 l-6
-28 137 0 c128 0 151 3 315 42 l176 43 6 60 c11 115 29 455 24 460 -6 6 -158
35 -178 34 -8 0 -114 -124 -235 -274z"/>
<path d="M17577 514 c-53 -59 -96 -108 -94 -109 1 -1 51 5 110 13 l109 15 -7
61 c-3 34 -9 76 -13 95 l-7 33 -98 -108z"/>
<path d="M2591 413 c-6 -104 -15 -218 -18 -255 l-6 -66 89 22 c49 13 88 27 88
32 -1 5 -29 104 -63 219 -33 116 -61 216 -61 223 0 6 -4 12 -8 12 -5 0 -14
-84 -21 -187z"/>
<path d="M2675 544 c8 -27 36 -121 61 -210 25 -88 49 -167 54 -173 10 -17 920
197 920 217 0 6 -3 12 -6 12 -3 0 -134 25 -292 55 -158 31 -381 74 -497 96
-115 22 -220 43 -232 46 -23 5 -23 5 -8 -43z"/>
<path d="M19712 471 c-38 -53 -65 -99 -60 -102 5 -3 1 -8 -9 -11 -10 -3 -65
-70 -122 -149 -58 -79 -115 -159 -129 -176 l-24 -33 139 0 140 0 107 124 c59
69 107 128 106 131 0 3 9 14 22 24 l22 18 -15 119 -14 118 -46 17 -47 16 -70
-96z m-154 -308 c-10 -2 -26 -2 -35 0 -10 3 -2 5 17 5 19 0 27 -2 18 -5z m95
-10 c-7 -2 -19 -2 -25 0 -7 3 -2 5 12 5 14 0 19 -2 13 -5z m84 -9 c-3 -3 -12
-4 -19 -1 -8 3 -5 6 6 6 11 1 17 -2 13 -5z"/>
<path d="M19976 562 c-2 -4 2 -16 10 -27 13 -18 14 -18 14 8 0 25 -13 36 -24
19z"/>
<path d="M19927 542 c-8 -11 15 -182 24 -182 4 0 17 12 28 26 39 50 19 164
-30 164 -10 0 -20 -3 -22 -8z"/>
<path d="M18355 486 c-38 -6 -69 -16 -67 -21 9 -36 15 -45 28 -45 8 0 12 -4 9
-10 -3 -5 11 -36 33 -67 21 -32 66 -104 101 -161 35 -56 70 -106 79 -112 10
-5 14 -10 9 -10 -4 0 -1 -13 8 -30 l15 -30 95 1 95 1 -23 37 c-12 21 -47 79
-77 129 -52 86 -57 92 -90 93 -31 2 -32 3 -7 6 15 2 27 7 27 9 0 3 -21 41 -47
84 -34 56 -54 79 -68 80 -15 0 -17 2 -7 9 12 7 12 12 1 30 -15 23 -14 23 -114
7z m32 -62 c-3 -3 -12 -4 -19 -1 -8 3 -5 6 6 6 11 1 17 -2 13 -5z"/>
<path d="M360 428 c-36 -32 -63 -64 -62 -71 2 -7 0 -9 -4 -5 -9 10 -206 -171
-198 -183 3 -5 2 -8 -3 -7 -4 2 -27 -12 -50 -31 -40 -32 -43 -38 -43 -83 l0
-48 122 0 121 0 -19 23 -19 22 26 -23 c25 -22 32 -23 198 -22 171 2 172 2 166
23 -6 20 -166 460 -169 463 0 1 -30 -25 -66 -58z m-210 -313 c19 -19 32 -35
29 -35 -3 0 -20 16 -39 35 -19 19 -32 35 -29 35 3 0 20 -16 39 -35z"/>
<path d="M1309 378 c-40 -57 -85 -120 -100 -141 -27 -38 -27 -38 -12 -100 8
-34 17 -78 22 -97 l7 -35 172 -3 172 -2 0 37 c-1 21 -5 83 -9 139 l-9 101 -78
101 c-44 55 -82 101 -86 101 -4 1 -40 -45 -79 -101z"/>
<path d="M18158 455 c-37 -7 -75 -18 -84 -26 -11 -9 -15 -9 -10 -1 5 8 -1 12
-18 12 l-26 0 6 -77 c3 -43 9 -80 12 -83 4 -3 8 -49 9 -102 2 -74 7 -104 20
-125 10 -15 12 -24 6 -20 -9 6 -13 2 -13 -12 0 -19 6 -21 65 -21 55 0 65 3 65
18 0 9 9 96 19 192 12 112 15 177 9 181 -6 4 -6 8 2 11 6 2 10 17 8 34 l-3 30
-67 -11z m-21 -81 c-3 -3 -12 -4 -19 -1 -8 3 -5 6 6 6 11 1 17 -2 13 -5z m-60
-10 c-3 -3 -12 -4 -19 -1 -8 3 -5 6 6 6 11 1 17 -2 13 -5z m31 -51 c-10 -2
-26 -2 -35 0 -10 3 -2 5 17 5 19 0 27 -2 18 -5z"/>
<path d="M17948 425 c-2 -2 -21 -6 -43 -9 -22 -2 -64 -8 -94 -12 l-54 -7 6
-56 c8 -79 36 -291 42 -318 5 -22 9 -23 116 -23 l110 0 -5 43 c-10 70 -28 241
-27 260 0 9 -8 17 -17 18 -14 0 -13 2 3 9 l20 9 -20 1 c-11 1 -14 4 -7 7 6 2
12 21 12 42 0 29 -4 37 -19 38 -10 1 -21 0 -23 -2z"/>
<path d="M18270 351 c0 -39 4 -51 18 -54 13 -4 12 -5 -4 -6 -19 -1 -23 -8 -26
-48 -2 -27 0 -51 5 -54 5 -4 5 -8 -1 -10 -6 -2 -14 -43 -19 -91 l-9 -88 148 0
c81 0 148 3 148 6 0 16 -65 102 -73 97 -6 -3 -7 -1 -3 6 8 12 -162 291 -176
291 -5 0 -8 -22 -8 -49z"/>
<path d="M17555 368 c-71 -11 -130 -21 -131 -22 0 0 -70 -77 -155 -171 l-154
-170 319 -3 c176 -1 321 -1 323 1 2 3 -8 88 -22 191 -14 102 -25 189 -25 191
0 6 0 6 -155 -17z"/>
<path d="M19973 331 c-17 -22 -20 -37 -16 -70 3 -22 11 -41 17 -41 8 0 8 -2
-1 -8 -8 -5 -9 -20 -3 -52 5 -25 9 -62 10 -82 0 -21 4 -38 9 -38 6 0 10 68 10
160 1 88 0 160 -2 160 -2 0 -13 -13 -24 -29z"/>
<path d="M17295 329 c-52 -8 -240 -36 -600 -89 -375 -55 -342 -47 -348 -83 -3
-18 -8 -39 -12 -48 -7 -18 -7 -18 185 -43 63 -9 201 -27 305 -41 105 -14 202
-25 217 -25 21 0 53 30 170 158 79 86 148 163 152 170 8 13 4 14 -69 1z"/>
<path d="M3470 264 c-124 -30 -323 -78 -442 -106 -158 -38 -218 -56 -218 -66
0 -8 5 -32 12 -53 l11 -39 188 0 188 0 258 160 c142 88 251 160 243 159 -8 0
-116 -25 -240 -55z"/>
<path d="M3568 171 c-95 -59 -195 -122 -223 -139 l-50 -32 257 0 256 0 7 106
c7 98 6 108 -11 117 -10 6 -28 21 -41 33 l-22 22 -173 -107z"/>
<path d="M19856 196 l-48 -56 29 -1 c26 -2 26 -2 -6 -8 -25 -4 -48 -22 -89
-69 l-55 -62 128 1 127 1 -6 56 c-4 31 -12 60 -19 64 -8 5 -9 8 0 8 7 0 9 14
6 43 -11 83 -14 84 -67 23z"/>
<path d="M1605 150 c3 -36 8 -84 11 -107 l5 -43 75 0 75 0 -77 98 c-42 53 -81
102 -86 107 -6 6 -7 -15 -3 -55z"/>
<path d="M3866 168 c-3 -18 -8 -63 -11 -100 l-7 -68 62 0 c70 0 68 -13 21 117
-32 87 -56 106 -65 51z"/>
<path d="M1105 87 c-28 -39 -51 -75 -53 -79 -2 -4 30 -8 71 -8 l75 0 -17 74
c-9 41 -18 77 -21 80 -3 2 -28 -27 -55 -67z"/>
<path d="M2650 69 c-41 -11 -78 -26 -82 -32 -21 -33 -9 -37 106 -37 l114 0
-13 43 c-15 51 -24 53 -125 26z"/>
<path d="M15810 35 l-85 -34 125 0 c95 0 120 2 105 10 -11 6 -29 21 -40 34
l-20 23 -85 -33z"/>
<path d="M16300 48 c0 -7 7 -21 14 -30 12 -16 34 -18 227 -17 158 1 198 4 154
10 -33 4 -127 17 -209 28 -174 25 -186 25 -186 9z"/>
<path d="M2455 20 l-70 -18 73 -1 c39 0 72 1 72 3 0 2 3 11 6 20 7 19 7 19
-81 -4z"/>
<path d="M19991 14 c0 -11 3 -14 6 -6 3 7 2 16 -1 19 -3 4 -6 -2 -5 -13z"/>
<path d="M16048 3 c7 -3 16 -2 19 1 4 3 -2 6 -13 5 -11 0 -14 -3 -6 -6z"/>
</g>
</svg>
